<?xml version="1.0" encoding="utf-8"?>
<!-- Generator: Adobe Illustrator 23.0.1, SVG Export Plug-In . SVG Version: 6.00 Build 0)  -->
<svg version="1.1" id="Layer_1" xmlns="http://www.w3.org/2000/svg" xmlns:xlink="http://www.w3.org/1999/xlink" x="0px" y="0px"
	 viewBox="0 0 512 512" style="enable-background:new 0 0 512 512;" xml:space="preserve">
<style type="text/css">
	.st0{fill:#73AF00;}
	.st1{fill:#FFE15A;}
	.st2{fill:#FFFFFF;}
	.st3{fill:#FF4B55;}
	.st4{display:none;fill:#121B21;}
</style>
<path class="st0" d="M468.3,90.8H43.7c-7,0-13.6,2.1-19.1,5.6L487.2,256L24.6,415.5c5.5,3.5,12.1,5.6,19.1,5.6h424.6
	c19.6,0,35.4-15.9,35.4-35.4V126.3C503.7,106.7,487.9,90.8,468.3,90.8z"/>
<path class="st1" d="M24.6,96.5c-1.3,0.8-2.5,1.8-3.7,2.8L256,256L20.8,412.8c1.2,1,2.4,1.9,3.7,2.8L487.2,256L24.6,96.5z"/>
<path class="st2" d="M8.3,429.4c-3.4,0-6.6-2.1-7.8-5.6c-1.5-4.3,0.8-9,5.1-10.5L461.9,256L5.6,98.6C1.3,97.2-1,92.5,0.5,88.1
	C1.9,83.8,6.6,81.5,11,83l479,165.2c3.3,1.1,5.6,4.3,5.6,7.8s-2.2,6.7-5.6,7.8L11,429C10.1,429.3,9.2,429.4,8.3,429.4z"/>
<path class="st3" d="M20.8,99.2c-7.7,6.5-12.6,16.2-12.6,27v259.5c0,10.8,4.9,20.5,12.6,27L256,256L20.8,99.2z"/>
<path class="st4" d="M468.3,82.6H43.7c-10.6,0-20.4,3.8-28,10.2c-0.1,0.1-0.1,0.1-0.2,0.1c-0.4,0.3-0.7,0.6-1.1,1L14.3,94
	c-0.5,0.4-1,0.9-1.4,1.4l-0.1,0.1c-0.5,0.5-0.9,1-1.4,1.4l0,0c-2.7,3-5,6.4-6.8,10c-0.1,0.2-0.2,0.4-0.3,0.6
	c-0.2,0.4-0.4,0.8-0.6,1.2c-0.1,0.3-0.3,0.6-0.4,0.9c-0.1,0.4-0.3,0.7-0.4,1.1c-0.1,0.4-0.3,0.7-0.4,1.1c-0.1,0.3-0.2,0.7-0.3,1
	c-0.1,0.4-0.3,0.8-0.4,1.2c-0.1,0.3-0.2,0.6-0.3,0.9c-0.1,0.5-0.2,0.9-0.3,1.4c-0.1,0.3-0.1,0.6-0.2,0.8c-0.1,0.5-0.2,1-0.3,1.5
	c0,0.3-0.1,0.5-0.1,0.8c-0.1,0.5-0.2,1-0.2,1.6c0,0.2-0.1,0.5-0.1,0.7c-0.1,0.6-0.1,1.1-0.1,1.7c0,0.2,0,0.4,0,0.6
	c0,0.8-0.1,1.5-0.1,2.3l0,0l0,0v259.5l0,0l0,0c0,0.8,0,1.6,0.1,2.3c0,0.2,0,0.4,0,0.6c0,0.6,0.1,1.1,0.1,1.7c0,0.2,0.1,0.5,0.1,0.7
	c0.1,0.5,0.1,1,0.2,1.6c0,0.3,0.1,0.5,0.1,0.8c0.1,0.5,0.2,1,0.3,1.5c0.1,0.3,0.1,0.6,0.2,0.8c0.1,0.5,0.2,0.9,0.3,1.4
	c0.1,0.3,0.2,0.6,0.3,0.9c0.1,0.4,0.2,0.8,0.4,1.2c0.1,0.3,0.2,0.7,0.3,1c0.1,0.4,0.3,0.7,0.4,1.1c0.1,0.4,0.3,0.7,0.4,1.1
	c0.1,0.3,0.2,0.6,0.4,0.9c0.2,0.4,0.4,0.8,0.6,1.2c0.1,0.2,0.2,0.4,0.3,0.6c1.8,3.6,4.1,7,6.8,10l0,0c0.4,0.5,0.9,1,1.4,1.4l0.1,0.1
	c0.5,0.5,0.9,0.9,1.4,1.4l0.1,0.1c0.4,0.3,0.7,0.7,1.1,1c0.1,0,0.1,0.1,0.2,0.1c7.6,6.4,17.4,10.2,28,10.2h424.6
	c24.1,0,43.7-19.6,43.7-43.7V126.3C512,102.2,492.4,82.6,468.3,82.6z M22,402.1l-0.1-0.1c-0.3-0.4-0.6-0.9-1-1.4
	c-0.1-0.2-0.2-0.3-0.3-0.5c-0.3-0.5-0.6-1-0.9-1.5c-0.1-0.1-0.1-0.3-0.2-0.4c-0.3-0.5-0.5-1-0.7-1.5c0-0.1-0.1-0.1-0.1-0.2
	c-0.3-0.6-0.5-1.2-0.7-1.8c0-0.1-0.1-0.2-0.1-0.3c-0.2-0.6-0.4-1.2-0.5-1.9c0-0.1,0-0.1,0-0.2c-0.1-0.6-0.3-1.2-0.4-1.9
	c0-0.1,0-0.2,0-0.2c-0.1-0.6-0.2-1.3-0.2-1.9c0-0.1,0-0.3,0-0.4c0-0.7-0.1-1.3-0.1-2l0,0V126.3l0,0c0-0.7,0-1.3,0.1-2
	c0-0.1,0-0.3,0-0.4c0.1-0.7,0.1-1.3,0.2-1.9c0-0.1,0-0.2,0-0.2c0.1-0.6,0.2-1.2,0.4-1.9c0-0.1,0-0.1,0-0.2c0.2-0.6,0.3-1.3,0.5-1.9
	c0-0.1,0.1-0.2,0.1-0.3c0.2-0.6,0.4-1.2,0.7-1.8c0-0.1,0.1-0.1,0.1-0.2c0.2-0.5,0.5-1,0.7-1.5c0.1-0.1,0.1-0.3,0.2-0.4
	c0.3-0.5,0.6-1,0.9-1.5c0.1-0.2,0.2-0.3,0.3-0.5c0.3-0.5,0.6-0.9,1-1.4l0.1-0.1L241.1,256L22,402.1z M495.5,385.7
	c0,15-12.2,27.2-27.2,27.2H43.7c-2.4,0-4.7-0.3-6.8-0.9l223.7-149.2c2.3-1.5,3.7-4.1,3.7-6.9c0-2.8-1.4-5.3-3.7-6.9L36.8,100
	c2.2-0.6,4.5-0.9,6.8-0.9h424.6c15,0,27.2,12.2,27.2,27.2L495.5,385.7L495.5,385.7z"/>
</svg>
