<svg xmlns="http://www.w3.org/2000/svg" xmlns:xlink="http://www.w3.org/1999/xlink" width="287.731" height="280.423" viewBox="0 0 287.731 280.423">
  <defs>
    <clipPath id="clip-path">
      <circle id="Ellipse_6" data-name="Ellipse 6" cx="48.603" cy="48.603" r="48.603" fill="none"/>
    </clipPath>
  </defs>
  <g id="illustra_ie" data-name="illustrație" transform="translate(-74.137 -85.904)">
    <g id="Group_122" data-name="Group 122" transform="translate(48.854 101.89)">
      <rect id="Rectangle_2" data-name="Rectangle 2" width="51.286" height="12.573" transform="translate(146.074 170.861)" fill="#90abc4"/>
      <rect id="Rectangle_3" data-name="Rectangle 3" width="215.604" height="8.872" transform="translate(35.491 163.073)" fill="#90abc4"/>
      <path id="Path_2" data-name="Path 2" d="M140.537,319.544l29.871,91.119,2.8-.845L148.22,319.533Z" transform="translate(-69.201 -150.19)" fill="#90abc4"/>
      <path id="Path_3" data-name="Path 3" d="M107.261,320.315,81.348,410.337l2.789.874,30.1-88.712Z" transform="translate(-56.065 -150.363)" fill="#90abc4"/>
      <g id="Group_1" data-name="Group 1" transform="translate(50.171 113.125)">
        <path id="Path_4" data-name="Path 4" d="M114.122,332.777s15.267,15.7,54.525,11.341,39.258-18.32,40.13-23.991,16.14-73.281-21.373-72.844-39.258,58.014-46.674,67.61S108.642,328.831,114.122,332.777Z" transform="translate(-113.335 -247.28)" fill="#dfebfd"/>
        <path id="Path_5" data-name="Path 5" d="M128.4,367.376l-15.065,57.745a2.278,2.278,0,0,1,1.971,0c.814.542,20.418-55.65,20.418-55.65Z" transform="translate(-113.335 -273.932)" fill="#c5daf7"/>
        <path id="Path_6" data-name="Path 6" d="M164.326,372.681s.28,53.354,1.094,53.621a7.018,7.018,0,0,0,2.442,0l1.348-53.621Z" transform="translate(-124.651 -275.109)" fill="#c5daf7"/>
        <path id="Path_7" data-name="Path 7" d="M199.686,368.85l21.062,56.3,2.442-.119-15.926-58.067Z" transform="translate(-132.498 -273.841)" fill="#c5daf7"/>
      </g>
      <path id="Path_67" data-name="Path 67" d="M143.241,423.611" transform="translate(-69.801 -173.287)" fill="#ba8a7b"/>
      <g id="Group_82" data-name="Group 82" transform="translate(76.611 181.785)" opacity="0.11">
        <path id="Path_106" data-name="Path 106" d="M183.555,344.434c.048.194-.529.546-1.655.941a22.386,22.386,0,0,1-4.932,1.015c-.531.068-1.087.086-1.67.128s-1.187.035-1.815.04a39.371,39.371,0,0,1-3.995-.239,47.277,47.277,0,0,1-8.929-1.925,65.227,65.227,0,0,1-8.416-3.37c-2.5-1.2-4.68-2.407-6.47-3.474-3.577-2.141-5.645-3.692-5.457-4.055s2.628.52,6.419,2.159c1.9.816,4.136,1.8,6.633,2.838s5.255,2.1,8.194,3.034a62.79,62.79,0,0,0,8.4,2.048c1.31.225,2.561.372,3.737.493.588.047,1.156.1,1.7.129s1.075.068,1.577.068C180.914,344.377,183.448,343.991,183.555,344.434Z" transform="translate(-140.206 -333.412)" fill="#00215f"/>
      </g>
      <path id="Path_107" data-name="Path 107" d="M407.3,302.272l-14.163-64.836,16.6,64.836-8.3-58.861,8.3,42.707-3.54-67.27s6.2,54.878,6.639,53.992,1.77-44.256,1.77-44.256-.664,65.057,0,64.394,3.983-35.627,3.983-35.627.443,31.422,0,30.758S426.334,235,426.334,235l-3.319,31.422s5.975-23.9,8.188-25.669c0,0-9.294,33.414-9.958,48.239,0,0,9.958-35.4,11.064-36.954l-10.843,50.231s11.064-38.724,13.5-41.712,0-1.217,0-1.217l-10.4,42.929-2.877,3.1-10.843,1.77Z" transform="translate(-125.259 -127.846)" fill="#c5daf7"/>
      <path id="Path_108" data-name="Path 108" d="M408.9,323.744l3.983,21.022,15.269.885,2.434-21.907Z" transform="translate(-128.757 -151.124)" fill="#dfebfd"/>
      <path id="Path_109" data-name="Path 109" d="M431.75,356.317l-5.247-.444.071-1.548c4.246.023,7.4.046,7.4.046v-3.2h-29.49s-.209,3.408,0,3.2c.07-.071,3.466-.094,7.929-.093v1.762h-4.868l-5.564,64.405h1.252l1.159-10.433,14.792.279v10.155h2.133V410.151l15.441-.417,1.39,10.711h2.087Zm-26.058,50.6,4.567-46.376,7.306.507,1.218,45.869Zm16.744,0c-.305-.2-1.328-45.97-1.328-45.97h8.33l6.089,45.97S422.74,407.124,422.436,406.921Z" transform="translate(-127.221 -157.211)" fill="#90abc4"/>
      <path id="Path_110" data-name="Path 110" d="M333.024,322.874l29.871,91.119,2.8-.845-24.985-90.285Z" transform="translate(-111.918 -150.929)" fill="#90abc4"/>
      <path id="Path_111" data-name="Path 111" d="M307.285,320.315l-25.913,90.023,2.789.874,30.1-88.712Z" transform="translate(-100.455 -150.363)" fill="#90abc4"/>
      <g id="Group_89" data-name="Group 89" transform="translate(160.861 113.523)">
        <path id="Path_112" data-name="Path 112" d="M260.106,247.793l-4.51,41.439h62.581l4.51-41.439Z" transform="translate(-255.596 -247.793)" fill="#dfebfd"/>
        <path id="Path_113" data-name="Path 113" d="M287.056,297.981s1.415,9.1-1.011,10.51h17.786a12.9,12.9,0,0,0,.5-10.51Z" transform="translate(-262.353 -258.93)" fill="#dfebfd"/>
        <path id="Path_114" data-name="Path 114" d="M257.572,280.688h61.012l3.8-31.8H261.113Z" transform="translate(-256.034 -248.037)" fill="#899cc0"/>
        <path id="Path_115" data-name="Path 115" d="M298.185,294.334a2.323,2.323,0,1,1-2.323-2.323A2.322,2.322,0,0,1,298.185,294.334Z" transform="translate(-264.016 -257.606)" fill="#c5daf7"/>
      </g>
    </g>
    <g id="Group_297" data-name="Group 297">
      <g id="Group_118" data-name="Group 118" transform="translate(158.715 174.003) rotate(-65)">
        <g id="Group_117" data-name="Group 117">
          <g id="Group_116" data-name="Group 116" clip-path="url(#clip-path)">
            <circle id="Ellipse_5" data-name="Ellipse 5" cx="48.603" cy="48.603" r="48.603" transform="translate(-0.043 0.129)" fill="#dfebfd"/>
          </g>
        </g>
        <path id="Path_159" data-name="Path 159" d="M218.306,196.687l-4.547,14.933,14.54-3.163" transform="translate(-211.298 -122.928)" fill="#dfebfd"/>
      </g>
      <text id="Z" transform="matrix(0.921, -0.391, 0.391, 0.921, 200.417, 141.572)" fill="#00215f" font-size="16" font-family="Axiforma-Book, Axiforma"><tspan x="-4.904" y="0">Z</tspan></text>
      <text id="Z-2" data-name="Z" transform="matrix(0.951, 0.309, -0.309, 0.951, 222.755, 152.982)" fill="#00215f" font-size="12" font-family="Axiforma-Book, Axiforma"><tspan x="-3.678" y="0">Z</tspan></text>
      <text id="Z-3" data-name="Z" transform="translate(214.689 171.907) rotate(-99)" fill="#00215f" font-size="15" font-family="Axiforma-Book, Axiforma"><tspan x="-4.597" y="0">Z</tspan></text>
      <text id="Z-4" data-name="Z" transform="matrix(0.995, -0.105, 0.105, 0.995, 253.88, 171.07)" fill="#00215f" font-size="15" font-family="Axiforma-Book, Axiforma"><tspan x="-4.597" y="0">Z</tspan></text>
      <text id="Z-5" data-name="Z" transform="translate(238.578 126.091) rotate(39)" fill="#00215f" font-size="15" font-family="Axiforma-Book, Axiforma"><tspan x="-4.597" y="0">Z</tspan></text>
    </g>
  </g>
</svg>
