<svg xmlns="http://www.w3.org/2000/svg" width="287.731" height="250.543" viewBox="0 0 287.731 250.543">
  <g id="illustra_ie" data-name="illustrație" transform="translate(-74.137 -115.784)">
    <g id="Group_122" data-name="Group 122" transform="translate(48.854 101.89)">
      <rect id="Rectangle_2" data-name="Rectangle 2" width="51.286" height="12.573" transform="translate(146.074 170.861)" fill="#90abc4"/>
      <rect id="Rectangle_3" data-name="Rectangle 3" width="215.604" height="8.872" transform="translate(35.491 163.073)" fill="#90abc4"/>
      <path id="Path_2" data-name="Path 2" d="M140.537,319.544l29.871,91.119,2.8-.845L148.22,319.533Z" transform="translate(-69.201 -150.19)" fill="#90abc4"/>
      <path id="Path_3" data-name="Path 3" d="M107.261,320.315,81.348,410.337l2.789.874,30.1-88.712Z" transform="translate(-56.065 -150.363)" fill="#90abc4"/>
      <g id="Group_1" data-name="Group 1" transform="translate(50.171 113.125)">
        <path id="Path_4" data-name="Path 4" d="M114.122,332.777s15.267,15.7,54.525,11.341,39.258-18.32,40.13-23.991,16.14-73.281-21.373-72.844-39.258,58.014-46.674,67.61S108.642,328.831,114.122,332.777Z" transform="translate(-113.335 -247.28)" fill="#dfebfd"/>
        <path id="Path_5" data-name="Path 5" d="M128.4,367.376l-15.065,57.745a2.278,2.278,0,0,1,1.971,0c.814.542,20.418-55.65,20.418-55.65Z" transform="translate(-113.335 -273.932)" fill="#c5daf7"/>
        <path id="Path_6" data-name="Path 6" d="M164.326,372.681s.28,53.354,1.094,53.621a7.018,7.018,0,0,0,2.442,0l1.348-53.621Z" transform="translate(-124.651 -275.109)" fill="#c5daf7"/>
        <path id="Path_7" data-name="Path 7" d="M199.686,368.85l21.062,56.3,2.442-.119-15.926-58.067Z" transform="translate(-132.498 -273.841)" fill="#c5daf7"/>
      </g>
      <path id="Path_67" data-name="Path 67" d="M143.241,423.611" transform="translate(-69.801 -173.287)" fill="#ba8a7b"/>
      <path id="Path_107" data-name="Path 107" d="M407.3,302.272l-14.163-64.836,16.6,64.836-8.3-58.861,8.3,42.707-3.54-67.27s6.2,54.878,6.639,53.992,1.77-44.256,1.77-44.256-.664,65.057,0,64.394,3.983-35.627,3.983-35.627.443,31.422,0,30.758S426.334,235,426.334,235l-3.319,31.422s5.975-23.9,8.188-25.669c0,0-9.294,33.414-9.958,48.239,0,0,9.958-35.4,11.064-36.954l-10.843,50.231s11.064-38.724,13.5-41.712,0-1.217,0-1.217l-10.4,42.929-2.877,3.1-10.843,1.77Z" transform="translate(-125.259 -127.846)" fill="#c5daf7"/>
      <path id="Path_108" data-name="Path 108" d="M408.9,323.744l3.983,21.022,15.269.885,2.434-21.907Z" transform="translate(-128.757 -151.124)" fill="#dfebfd"/>
      <path id="Path_109" data-name="Path 109" d="M431.75,356.317l-5.247-.444.071-1.548c4.246.023,7.4.046,7.4.046v-3.2h-29.49s-.209,3.408,0,3.2c.07-.071,3.466-.094,7.929-.093v1.762h-4.868l-5.564,64.405h1.252l1.159-10.433,14.792.279v10.155h2.133V410.151l15.441-.417,1.39,10.711h2.087Zm-26.058,50.6,4.567-46.376,7.306.507,1.218,45.869Zm16.744,0c-.305-.2-1.328-45.97-1.328-45.97h8.33l6.089,45.97S422.74,407.124,422.436,406.921Z" transform="translate(-127.221 -157.211)" fill="#90abc4"/>
      <path id="Path_110" data-name="Path 110" d="M333.024,322.874l29.871,91.119,2.8-.845-24.985-90.285Z" transform="translate(-111.918 -150.929)" fill="#90abc4"/>
      <path id="Path_111" data-name="Path 111" d="M307.285,320.315l-25.913,90.023,2.789.874,30.1-88.712Z" transform="translate(-100.455 -150.363)" fill="#90abc4"/>
      <g id="Group_89" data-name="Group 89" transform="translate(160.861 113.523)">
        <path id="Path_112" data-name="Path 112" d="M260.106,247.793l-4.51,41.439h62.581l4.51-41.439Z" transform="translate(-255.596 -247.793)" fill="#dfebfd"/>
        <path id="Path_113" data-name="Path 113" d="M287.056,297.981s1.415,9.1-1.011,10.51h17.786a12.9,12.9,0,0,0,.5-10.51Z" transform="translate(-262.353 -258.93)" fill="#dfebfd"/>
        <path id="Path_114" data-name="Path 114" d="M257.572,280.688h61.012l3.8-31.8H261.113Z" transform="translate(-256.034 -248.037)" fill="#c5daf7"/>
        <path id="Path_115" data-name="Path 115" d="M298.185,294.334a2.323,2.323,0,1,1-2.323-2.323A2.322,2.322,0,0,1,298.185,294.334Z" transform="translate(-264.016 -257.606)" fill="#c5daf7"/>
        <path id="Path_116" data-name="Path 116" d="M260.813,256.32l61.319-.418-1.58,13.223-61.169.457Z" transform="translate(-256.436 -249.592)" fill="#a3bfe2"/>
        <g id="Group_88" data-name="Group 88" transform="translate(6.91 9.391)">
          <g id="Group_83" data-name="Group 83">
            <rect id="Rectangle_4" data-name="Rectangle 4" width="9.974" height="0.94" fill="#f8fbff"/>
          </g>
          <g id="Group_84" data-name="Group 84" transform="translate(0 2.083)">
            <rect id="Rectangle_5" data-name="Rectangle 5" width="18.557" height="0.325" fill="#f8fbff"/>
          </g>
          <g id="Group_85" data-name="Group 85" transform="translate(0 3.388)">
            <rect id="Rectangle_6" data-name="Rectangle 6" width="20.332" height="0.325" fill="#f8fbff"/>
          </g>
          <g id="Group_86" data-name="Group 86" transform="translate(0 4.642)">
            <rect id="Rectangle_7" data-name="Rectangle 7" width="10.444" height="0.325" fill="#f8fbff"/>
          </g>
          <g id="Group_87" data-name="Group 87" transform="translate(0 6.501)">
            <rect id="Rectangle_8" data-name="Rectangle 8" width="5.901" height="1.723" fill="#f8fbff"/>
          </g>
        </g>
        <rect id="Rectangle_9" data-name="Rectangle 9" width="5.014" height="1.407" transform="translate(7.504 3.628)" fill="#a3bfe2"/>
        <rect id="Rectangle_10" data-name="Rectangle 10" width="5.074" height="0.917" transform="translate(40.776 3.828)" fill="#a3bfe2"/>
        <rect id="Rectangle_11" data-name="Rectangle 11" width="5.074" height="0.917" transform="translate(47.824 3.828)" fill="#a3bfe2"/>
        <rect id="Rectangle_12" data-name="Rectangle 12" width="5.074" height="0.917" transform="translate(54.873 3.828)" fill="#a3bfe2"/>
        <path id="Path_117" data-name="Path 117" d="M273.133,286.882H261.51l1.1-10.078h11.906Z" transform="translate(-256.908 -254.231)" fill="#a3bfe2"/>
        <path id="Path_118" data-name="Path 118" d="M291.436,286.882H279.814l1.1-10.078h11.906Z" transform="translate(-260.97 -254.231)" fill="#a3bfe2"/>
        <path id="Path_119" data-name="Path 119" d="M309.74,286.882H298.117l1.1-10.078H311.12Z" transform="translate(-265.032 -254.231)" fill="#a3bfe2"/>
        <path id="Path_120" data-name="Path 120" d="M328.043,286.882H316.421l1.1-10.078h11.906Z" transform="translate(-269.094 -254.231)" fill="#a3bfe2"/>
        <path id="Path_121" data-name="Path 121" d="M313.7,256.062l-10.518,13.3,13.335-.1,10.784-13.2Z" transform="translate(-266.156 -249.628)" fill="#fcfdff" opacity="0.42"/>
      </g>
    </g>
  </g>
</svg>
