<svg xmlns="http://www.w3.org/2000/svg" xmlns:xlink="http://www.w3.org/1999/xlink" width="313.014" height="284.293" viewBox="0 0 313.014 284.293">
  <defs>
    <clipPath id="clip-path">
      <path id="Path_51" data-name="Path 51" d="M199.36,313.168l-40.311-12.46,1.482-19.959-6.4,10.568-4.034.425-2.306.131-3.1-.7.858-16.2,2.35,1.555V257.034a14.965,14.965,0,0,1,8.329-13.417c3.8-1.877,7.726-3.193,9.024-3.248,2.67-.111,2.781-4,2.781-4v-7.119l12.347-1.892.779,11.347s9.907,3.816,12.53,4.835c.178.069.352.139.524.209a17.152,17.152,0,0,1,10.391,13.249l2.807,17.859,2.113-.89,1.558,6.786-12.57,5.117-5.353-16.91-1.21,11.793Z" transform="translate(-144.695 -227.354)" fill="none"/>
    </clipPath>
    <clipPath id="clip-path-2">
      <circle id="Ellipse_6" data-name="Ellipse 6" cx="48.603" cy="48.603" r="48.603" fill="#4c75a3"/>
    </clipPath>
  </defs>
  <g id="illustra_ie_2" data-name="illustrație 2" transform="translate(-48.854 -85.123)">
    <g id="Group_122" data-name="Group 122" transform="translate(48.854 101.89)">
      <rect id="Rectangle_2" data-name="Rectangle 2" width="51.286" height="12.573" transform="translate(146.074 170.861)" fill="#90abc4"/>
      <rect id="Rectangle_3" data-name="Rectangle 3" width="215.604" height="8.872" transform="translate(35.491 163.073)" fill="#90abc4"/>
      <path id="Path_2" data-name="Path 2" d="M140.537,319.544l29.871,91.119,2.8-.845L148.22,319.533Z" transform="translate(-69.201 -150.19)" fill="#90abc4"/>
      <path id="Path_3" data-name="Path 3" d="M107.261,320.315,81.348,410.337l2.789.874,30.1-88.712Z" transform="translate(-56.065 -150.363)" fill="#90abc4"/>
      <g id="Group_1" data-name="Group 1" transform="translate(50.171 113.125)">
        <path id="Path_4" data-name="Path 4" d="M114.122,332.777s15.267,15.7,54.525,11.341,39.258-18.32,40.13-23.991,16.14-73.281-21.373-72.844-39.258,58.014-46.674,67.61S108.642,328.831,114.122,332.777Z" transform="translate(-113.335 -247.28)" fill="#dfebfd"/>
        <path id="Path_5" data-name="Path 5" d="M128.4,367.376l-15.065,57.745a2.278,2.278,0,0,1,1.971,0c.814.542,20.418-55.65,20.418-55.65Z" transform="translate(-113.335 -273.932)" fill="#c5daf7"/>
        <path id="Path_6" data-name="Path 6" d="M164.326,372.681s.28,53.354,1.094,53.621a7.018,7.018,0,0,0,2.442,0l1.348-53.621Z" transform="translate(-124.651 -275.109)" fill="#c5daf7"/>
        <path id="Path_7" data-name="Path 7" d="M199.686,368.85l21.062,56.3,2.442-.119-15.926-58.067Z" transform="translate(-132.498 -273.841)" fill="#c5daf7"/>
      </g>
      <path id="Path_8" data-name="Path 8" d="M145.45,422.13l7.636-1.2-.154-13.711-10.822,3.217,3.34,11.7" transform="translate(-69.55 -169.648)" fill="#f4bfad"/>
      <path id="Path_9" data-name="Path 9" d="M170.484,193.527s-6.256,7.559-6.169,9.3-3.382,11.437,1.484,16.911,6.386,5.665,12.07,2.724c.232-.12,7.82-3.823,7.82-3.823l5.3-5.387-2.346-6.6-5.126-8.949-2.172-2.259-10.426-1.564" transform="translate(-74.23 -122.227)" fill="#ffc7b4"/>
      <g id="Group_41" data-name="Group 41" transform="translate(74.572 97.621)">
        <g id="Group_40" data-name="Group 40" transform="translate(0)" clip-path="url(#clip-path)">
          <path id="Path_10" data-name="Path 10" d="M167.048,229.246v7.119s-.111,3.893-2.781,4c-1.3.054-5.228,1.371-9.024,3.248a14.965,14.965,0,0,0-8.329,13.417v19.488l-2.559-.89-4.115,13.126,6.563,3.115,1.223-2.558,5.117,2,1.891-1.335-1.39,10.345,40.435-3-3.115-16.575-.556-3.782,3.671-6.452,3.448,15.351,12.57-5.117-1.558-6.786-2.113.89-3.671-23.36s-.636-4.868-5.014-5.916c-2.737-.654-17.567-6.877-17.567-6.877l-.779-11.347Z" transform="translate(-143.706 -227.354)" fill="#ba8a7b"/>
          <path id="Path_11" data-name="Path 11" d="M167.048,229.246v7.119s-.111,3.893-2.781,4c-1.3.054-5.228,1.371-9.024,3.248a14.965,14.965,0,0,0-8.329,13.417v19.488l-2.559-.89-4.115,13.126,6.563,3.115,1.223-2.558,5.117,2,1.891-1.335-1.39,10.345,40.435-3-3.115-16.575-.556-3.782,3.671-6.452,3.448,15.351,12.57-5.117-1.558-6.786-2.113.89-2.807-17.859a17.152,17.152,0,0,0-10.391-13.249c-.172-.07-.346-.14-.524-.209-2.623-1.019-12.53-4.835-12.53-4.835l-.779-11.347Z" transform="translate(-143.706 -227.354)" fill="#ffc7b4"/>
          <path id="Path_12" data-name="Path 12" d="M157.026,246.1c-.109.047,16.288,13.379,16.288,13.379l17.552-12.347,9.729,1.436,12.17,38.818-18.885,3.882,3.039,27.066L149.4,305.855l1.573-9.757-3.147-.21a19.953,19.953,0,0,1-2.1,2.309c-.315.105-10.282-3.882-10.282-3.882l7.868-47.526Z" transform="translate(-142.642 -231.515)" fill="#eace75"/>
          <g id="Group_2" data-name="Group 2" transform="translate(47.183 30.441)">
            <path id="Path_13" data-name="Path 13" d="M205.411,289.431a13.984,13.984,0,0,1,.029-3.385c.119-2.081.329-4.95.592-8.116s.523-6.031.727-8.1a16.44,16.44,0,0,1,.448-3.35,11.453,11.453,0,0,1,.149,3.387c-.051,2.088-.218,4.965-.481,8.136C206.35,284.34,205.646,289.456,205.411,289.431Z" transform="translate(-205.336 -266.477)" fill="#af9544"/>
          </g>
          <g id="Group_3" data-name="Group 3" transform="translate(54.661 46.508)">
            <path id="Path_14" data-name="Path 14" d="M224.86,287.175c.07.23-2.165,1.107-4.881,2.249s-4.914,2.112-5.028,1.9,1.936-1.527,4.7-2.68S224.794,286.957,224.86,287.175Z" transform="translate(-214.947 -287.127)" fill="#af9544"/>
          </g>
          <g id="Group_4" data-name="Group 4" transform="translate(56.418 45.712)">
            <path id="Path_15" data-name="Path 15" d="M223.607,286.211c.052.227-1.338.742-3.105,1.149s-3.244.553-3.3.325,1.338-.742,3.106-1.149S223.555,285.983,223.607,286.211Z" transform="translate(-217.204 -286.104)" fill="#af9544"/>
          </g>
          <g id="Group_5" data-name="Group 5" transform="translate(34.471 44.313)">
            <path id="Path_16" data-name="Path 16" d="M198.084,286.512c.052.092-.4.5-1.307.831a6.6,6.6,0,0,1-6.979-1.691c-.654-.713-.869-1.28-.781-1.337.1-.073.486.353,1.187.9a7.738,7.738,0,0,0,6.415,1.555C197.489,286.6,198.024,286.4,198.084,286.512Z" transform="translate(-188.998 -284.307)" fill="#af9544"/>
          </g>
          <g id="Group_6" data-name="Group 6" transform="translate(11.776 32.556)">
            <path id="Path_17" data-name="Path 17" d="M163.547,294.661c-.056,0-.1-.419-.048-1.164s.174-1.812.349-3.122c.086-.654.185-1.371.265-2.134.04-.384.072-.77.08-1.171a2.133,2.133,0,0,0-.174-1.05,1.506,1.506,0,0,0-.858-.6,5.386,5.386,0,0,1-1.336-.673,4.843,4.843,0,0,1-1.814-2.593,4.478,4.478,0,0,1-.112-2.035,4.66,4.66,0,0,1,.755-1.8,4.728,4.728,0,0,1,2.9-1.955l-.278.473a27.712,27.712,0,0,1-1.035-5.511,6.225,6.225,0,0,1,.02-2.137,10.025,10.025,0,0,1,.415,2.082,38.391,38.391,0,0,0,1.31,5.347l.124.379-.4.095a4.038,4.038,0,0,0-2.381,1.688,3.908,3.908,0,0,0-.606,1.484,3.678,3.678,0,0,0,.1,1.653,4.078,4.078,0,0,0,1.488,2.155,4.619,4.619,0,0,0,1.152.594,3.534,3.534,0,0,1,.678.352,1.757,1.757,0,0,1,.564.628,2.815,2.815,0,0,1,.23,1.443c-.022.428-.071.842-.127,1.23-.113.78-.247,1.494-.371,2.145-.256,1.285-.465,2.33-.613,3.069A3.8,3.8,0,0,1,163.547,294.661Z" transform="translate(-159.829 -269.195)" fill="#af9544"/>
          </g>
          <g id="Group_7" data-name="Group 7" transform="translate(3.092 49.914)">
            <path id="Path_18" data-name="Path 18" d="M150.96,299.035c-.224.066-.9-1.566-1.516-3.645s-.928-3.818-.7-3.884.9,1.565,1.516,3.645S151.184,298.969,150.96,299.035Z" transform="translate(-148.668 -291.505)" fill="#af9544"/>
          </g>
          <g id="Group_8" data-name="Group 8" transform="translate(3.483 49.105)">
            <path id="Path_19" data-name="Path 19" d="M152.486,296.565c-.206.11-1.1-1.164-2.008-2.847s-1.469-3.136-1.264-3.247,1.1,1.164,2.008,2.847S152.691,296.455,152.486,296.565Z" transform="translate(-149.172 -290.464)" fill="#af9544"/>
          </g>
          <g id="Group_9" data-name="Group 9" transform="translate(19.883 31.504)">
            <path id="Path_20" data-name="Path 20" d="M172.462,272.859c-.917.177-1.877-.8-2.144-2.176s.261-2.642,1.178-2.819,1.876.8,2.143,2.177S173.378,272.682,172.462,272.859Z" transform="translate(-170.249 -267.843)" fill="#fcfdff"/>
          </g>
          <g id="Group_10" data-name="Group 10" transform="translate(33.771 33.342)">
            <path id="Path_21" data-name="Path 21" d="M191.293,270.315c.837.414.962,1.871.279,3.253s-1.917,2.168-2.754,1.754-.962-1.87-.278-3.253S190.456,269.9,191.293,270.315Z" transform="translate(-188.098 -270.205)" fill="#fcfdff"/>
          </g>
          <g id="Group_11" data-name="Group 11" transform="translate(25.928 44.204)">
            <path id="Path_22" data-name="Path 22" d="M179.8,284.167c.934.033,1.65,1.22,1.6,2.653s-.847,2.568-1.781,2.535-1.65-1.22-1.6-2.653S178.868,284.134,179.8,284.167Z" transform="translate(-178.018 -284.166)" fill="#fcfdff"/>
          </g>
          <g id="Group_12" data-name="Group 12" transform="translate(40.875 50.747)">
            <path id="Path_23" data-name="Path 23" d="M201.955,293.015c.58.733.044,2.123-1.2,3.105s-2.716,1.185-3.3.453-.044-2.122,1.2-3.1S201.375,292.283,201.955,293.015Z" transform="translate(-197.228 -292.575)" fill="#fcfdff"/>
          </g>
          <g id="Group_13" data-name="Group 13" transform="translate(39.716 24.137)">
            <path id="Path_24" data-name="Path 24" d="M199.579,260.012a1.937,1.937,0,1,1-1.968-1.636A1.818,1.818,0,0,1,199.579,260.012Z" transform="translate(-195.738 -258.376)" fill="#fcfdff"/>
          </g>
          <g id="Group_14" data-name="Group 14" transform="translate(52.819 23.17)">
            <path id="Path_25" data-name="Path 25" d="M216.258,257.984a2,2,0,1,1-2.531-.6A1.85,1.85,0,0,1,216.258,257.984Z" transform="translate(-212.578 -257.133)" fill="#fcfdff"/>
          </g>
          <g id="Group_15" data-name="Group 15" transform="translate(41.555 36.235)">
            <path id="Path_26" data-name="Path 26" d="M201.371,274.248a2.212,2.212,0,1,1-2.676.568A1.962,1.962,0,0,1,201.371,274.248Z" transform="translate(-198.102 -273.924)" fill="#fcfdff"/>
          </g>
          <g id="Group_16" data-name="Group 16" transform="translate(52.682 32.935)">
            <path id="Path_27" data-name="Path 27" d="M215.832,270.788a1.772,1.772,0,1,1-2.235-1A1.732,1.732,0,0,1,215.832,270.788Z" transform="translate(-212.403 -269.682)" fill="#fcfdff"/>
          </g>
          <g id="Group_17" data-name="Group 17" transform="translate(58.306 37.378)">
            <path id="Path_28" data-name="Path 28" d="M223.752,276.92a1.7,1.7,0,0,1-.536,1.216,2.3,2.3,0,0,1-2.645.412,1.7,1.7,0,0,1-.881-1,1.432,1.432,0,0,1,.283-1.32,2.444,2.444,0,0,1,3.108-.484A1.43,1.43,0,0,1,223.752,276.92Z" transform="translate(-219.631 -275.393)" fill="#fcfdff"/>
          </g>
          <g id="Group_18" data-name="Group 18" transform="translate(48.841 45.117)">
            <path id="Path_29" data-name="Path 29" d="M211.156,286.041a2.092,2.092,0,1,1-2.639-.328A1.9,1.9,0,0,1,211.156,286.041Z" transform="translate(-207.467 -285.339)" fill="#fcfdff"/>
          </g>
          <g id="Group_19" data-name="Group 19" transform="translate(56.385 54.066)">
            <path id="Path_30" data-name="Path 30" d="M219.52,299.725a2.342,2.342,0,0,1-1.236.244,1.079,1.079,0,0,1-1.116-1.309,2.346,2.346,0,0,1,.436-1.182,1.5,1.5,0,0,1,1.117-.636,1.583,1.583,0,0,1,1.6,1.88A1.5,1.5,0,0,1,219.52,299.725Z" transform="translate(-217.162 -296.84)" fill="#fcfdff"/>
          </g>
          <g id="Group_20" data-name="Group 20" transform="translate(63.704 49.262)">
            <path id="Path_31" data-name="Path 31" d="M229.534,292.225a2.107,2.107,0,0,1-.357,1.211,1.167,1.167,0,0,1-1.822.285,2.112,2.112,0,0,1-.71-1.045,1.619,1.619,0,0,1,.119-1.272,1.474,1.474,0,0,1,2.269-.355A1.621,1.621,0,0,1,229.534,292.225Z" transform="translate(-226.568 -290.666)" fill="#fcfdff"/>
          </g>
          <g id="Group_21" data-name="Group 21" transform="translate(48.234 15.352)">
            <path id="Path_32" data-name="Path 32" d="M210.03,247.248c.8.482.84,1.882.09,3.127s-2.007,1.863-2.807,1.381-.84-1.882-.089-3.127S209.23,246.766,210.03,247.248Z" transform="translate(-206.686 -247.084)" fill="#fcfdff"/>
          </g>
          <g id="Group_22" data-name="Group 22" transform="translate(21.647 23.189)">
            <path id="Path_33" data-name="Path 33" d="M175.569,257.533a1.935,1.935,0,1,1-2.535.338A1.816,1.816,0,0,1,175.569,257.533Z" transform="translate(-172.516 -257.156)" fill="#fcfdff"/>
          </g>
          <g id="Group_23" data-name="Group 23" transform="translate(8.427 14.12)">
            <path id="Path_34" data-name="Path 34" d="M155.7,245.94a1.4,1.4,0,0,1,1.487-.39,4.86,4.86,0,0,1,3.439,3.347,1.4,1.4,0,0,1-.349,1.5,1.568,1.568,0,0,1-1.5.015,6.26,6.26,0,0,1-3.048-2.966A1.568,1.568,0,0,1,155.7,245.94Z" transform="translate(-155.525 -245.501)" fill="#fcfdff"/>
          </g>
          <g id="Group_24" data-name="Group 24" transform="translate(13.576 23.997)">
            <path id="Path_35" data-name="Path 35" d="M165.5,259.108a1.434,1.434,0,0,1,.106,1.314,2,2,0,0,1-2.682.969,1.434,1.434,0,0,1-.758-1.078,1.959,1.959,0,0,1,.271-1.263,1.628,1.628,0,0,1,2.048-.739A1.959,1.959,0,0,1,165.5,259.108Z" transform="translate(-162.143 -258.195)" fill="#fcfdff"/>
          </g>
          <g id="Group_25" data-name="Group 25" transform="translate(29.02 28.65)">
            <path id="Path_36" data-name="Path 36" d="M183.821,264.178c.933.049,1.629,1.24,1.554,2.661s-.892,2.533-1.825,2.484-1.628-1.24-1.553-2.662S182.889,264.129,183.821,264.178Z" transform="translate(-181.992 -264.176)" fill="#fcfdff"/>
          </g>
          <g id="Group_26" data-name="Group 26" transform="translate(14.895 43.333)">
            <path id="Path_37" data-name="Path 37" d="M167.209,283.477a1.4,1.4,0,0,1,.426,1.28,2.38,2.38,0,0,1-2.554,1.883,1.4,1.4,0,0,1-1.1-.785,1.8,1.8,0,0,1-.043-1.318,2.14,2.14,0,0,1,2.022-1.49A1.8,1.8,0,0,1,167.209,283.477Z" transform="translate(-163.838 -283.047)" fill="#fcfdff"/>
          </g>
          <g id="Group_27" data-name="Group 27" transform="translate(20.446 53.373)">
            <path id="Path_38" data-name="Path 38" d="M173.775,300.44a1.571,1.571,0,0,1-1.364-.205,3.195,3.195,0,0,1-1.424-2.9,1.574,1.574,0,0,1,.67-1.206,1.417,1.417,0,0,1,1.4,0,3.125,3.125,0,0,1,1.574,3.2A1.418,1.418,0,0,1,173.775,300.44Z" transform="translate(-170.972 -295.95)" fill="#fcfdff"/>
          </g>
          <g id="Group_28" data-name="Group 28" transform="translate(32.47 56.416)">
            <path id="Path_39" data-name="Path 39" d="M188.427,299.866c.93.092,1.552,1.5,1.39,3.143s-1.047,2.9-1.977,2.811-1.551-1.5-1.389-3.143S187.5,299.775,188.427,299.866Z" transform="translate(-186.426 -299.861)" fill="#fcfdff"/>
          </g>
          <g id="Group_29" data-name="Group 29" transform="translate(22.282 63.588)">
            <path id="Path_40" data-name="Path 40" d="M178.1,312.1c-.408.84-1.779,1.017-3.063.395s-1.994-1.808-1.586-2.649,1.778-1.017,3.062-.395S178.5,311.258,178.1,312.1Z" transform="translate(-173.332 -309.078)" fill="#fcfdff"/>
          </g>
          <g id="Group_30" data-name="Group 30" transform="translate(40.949 62.195)">
            <path id="Path_41" data-name="Path 41" d="M198.941,307.289c.934-.03,1.723.977,1.764,2.249s-.684,2.326-1.618,2.356-1.723-.977-1.763-2.249S198.008,307.318,198.941,307.289Z" transform="translate(-197.323 -307.288)" fill="#fcfdff"/>
          </g>
          <g id="Group_31" data-name="Group 31" transform="translate(33.564 67.291)">
            <path id="Path_42" data-name="Path 42" d="M190.865,318.408a1.4,1.4,0,0,1-1.411-.037A3.3,3.3,0,0,1,187.89,315a1.4,1.4,0,0,1,.884-1.1,1.57,1.57,0,0,1,1.362.279,3.449,3.449,0,0,1,1.4,3.013A1.573,1.573,0,0,1,190.865,318.408Z" transform="translate(-187.832 -313.838)" fill="#fcfdff"/>
          </g>
          <g id="Group_32" data-name="Group 32" transform="translate(6.212 59.885)">
            <path id="Path_43" data-name="Path 43" d="M155.618,307.634a1.908,1.908,0,1,1,.166-2.535A1.8,1.8,0,0,1,155.618,307.634Z" transform="translate(-152.679 -304.319)" fill="#fcfdff"/>
          </g>
          <g id="Group_33" data-name="Group 33" transform="translate(10.277 53.865)">
            <path id="Path_44" data-name="Path 44" d="M161.987,300.444c-.633.688-1.988.47-3.027-.486s-1.369-2.288-.736-2.976,1.987-.469,3.026.487S162.619,299.757,161.987,300.444Z" transform="translate(-157.903 -296.582)" fill="#fcfdff"/>
          </g>
          <g id="Group_34" data-name="Group 34" transform="translate(1.255 41.32)">
            <path id="Path_45" data-name="Path 45" d="M146.456,281.025c.486-.8,2.026-.745,3.438.117s2.162,2.207,1.676,3-2.025.745-3.438-.118S145.969,281.822,146.456,281.025Z" transform="translate(-146.308 -280.459)" fill="#fcfdff"/>
          </g>
          <g id="Group_35" data-name="Group 35" transform="translate(8.849 37.548)">
            <path id="Path_46" data-name="Path 46" d="M159.846,276.482a1.45,1.45,0,0,1,.016,1.343,2.349,2.349,0,0,1-2.842,1.122,1.449,1.449,0,0,1-.906-.991,1.709,1.709,0,0,1,.231-1.3,2.2,2.2,0,0,1,2.443-.965A1.706,1.706,0,0,1,159.846,276.482Z" transform="translate(-156.068 -275.611)" fill="#fcfdff"/>
          </g>
          <g id="Group_36" data-name="Group 36" transform="translate(0.983 29.834)">
            <path id="Path_47" data-name="Path 47" d="M146.021,266.544c.328-.874,1.853-1.11,3.4-.527s2.542,1.765,2.213,2.639-1.852,1.11-3.4.527S145.693,267.418,146.021,266.544Z" transform="translate(-145.958 -265.697)" fill="#fcfdff"/>
          </g>
          <g id="Group_37" data-name="Group 37" transform="translate(7.923 24.879)">
            <path id="Path_48" data-name="Path 48" d="M156.128,259.362a2.18,2.18,0,1,1-1.185,2.443A1.946,1.946,0,0,1,156.128,259.362Z" transform="translate(-154.878 -259.329)" fill="#fcfdff"/>
          </g>
          <g id="Group_38" data-name="Group 38" transform="translate(0.606 19.965)">
            <path id="Path_49" data-name="Path 49" d="M145.616,253.764c.435-.827,1.74-1,2.914-.378s1.774,1.79,1.339,2.616-1.74,1-2.914.377S145.181,254.59,145.616,253.764Z" transform="translate(-145.474 -253.014)" fill="#fcfdff"/>
          </g>
          <g id="Group_39" data-name="Group 39" transform="translate(-0.362 55.945)">
            <path id="Path_50" data-name="Path 50" d="M148.267,300.12a2.225,2.225,0,1,1-2.674-.609A1.97,1.97,0,0,1,148.267,300.12Z" transform="translate(-144.229 -299.256)" fill="#fcfdff"/>
          </g>
        </g>
      </g>
      <path id="Path_52" data-name="Path 52" d="M179.82,220.456a15.406,15.406,0,0,0,.58,4.318c1.1,3.982,3.79,10.279,12.685,8.252,9.923-2.262,4.974-12.65,4.974-12.65l.647-.457a3.126,3.126,0,0,0,1.357-2.511,1.882,1.882,0,0,0-1.113-1.877c2.67-7.316-3.757-7.81-3.757-7.81v-.791c-1.509-10.495-6.3-16.273-11.428-18.917-3.627-1.868-8.841-1.548-8.841-1.548s-2.372-2.274-8.107-1.483-2.274,9.293-2.274,9.293l-.988.593c-6.426,2.867-3.856,21.949-3.856,21.949s-4.647,3.361-4.053,9.1,7.047,6.45,7.047,6.45,7.486-1.7,7.881-1.8-.205-9.254-.205-9.254c-4.06-1.672-7.371-6.014-7.308-14.573.063-8.644,6.624-14.237,6.624-14.237,2.571,3.757,8.6,3.855,8.6,3.855,0,3.659,3.856,7.316,3.856,7.316s.8,8.9-1,11.669A9.744,9.744,0,0,0,179.82,220.456Z" transform="translate(-72.542 -120.293)" fill="#1e2e4b"/>
      <g id="Group_42" data-name="Group 42" transform="translate(100.349 80.07)">
        <path id="Path_53" data-name="Path 53" d="M183.962,205.585c-.092.228-1.473-.2-3.141.13-1.675.287-2.815,1.175-2.982,1-.075-.079.119-.426.6-.829a4.513,4.513,0,0,1,.934-.585,5.3,5.3,0,0,1,2.644-.486,4.527,4.527,0,0,1,1.082.215C183.7,205.229,184,205.485,183.962,205.585Z" transform="translate(-177.824 -204.798)" fill="#1e2e4b"/>
      </g>
      <g id="Group_43" data-name="Group 43" transform="translate(101.538 82.912)">
        <path id="Path_54" data-name="Path 54" d="M184.272,209.973c-.1.073-.365-.164-.826-.383a2.661,2.661,0,0,0-3.413.784c-.321.4-.453.726-.577.7-.1-.01-.19-.414.06-1.006a2.635,2.635,0,0,1,.653-.9,2.708,2.708,0,0,1,2.628-.6,2.629,2.629,0,0,1,.982.528C184.261,209.518,184.361,209.918,184.272,209.973Z" transform="translate(-179.353 -208.45)" fill="#1e2e4b"/>
      </g>
      <path id="Path_55" data-name="Path 55" d="M181.5,209.473a.906.906,0,1,0,1.222-.313" transform="translate(-78.264 -125.696)" fill="#1e2e4b"/>
      <g id="Group_44" data-name="Group 44" transform="translate(91.922 83.151)">
        <path id="Path_56" data-name="Path 56" d="M170.328,210.905c-.117.033-.268-.157-.5-.4a3.115,3.115,0,0,0-2.2-1.057c-.337-.031-.58-.03-.627-.142s.137-.314.546-.451a2.315,2.315,0,0,1,2.793,1.343C170.487,210.6,170.435,210.877,170.328,210.905Z" transform="translate(-166.994 -208.757)" fill="#1e2e4b"/>
      </g>
      <path id="Path_57" data-name="Path 57" d="M169.278,209.616a.607.607,0,0,0-.479.413.816.816,0,1,0,1.429-.2" transform="translate(-75.462 -125.797)" fill="#1e2e4b"/>
      <g id="Group_45" data-name="Group 45" transform="translate(91.489 79.942)">
        <path id="Path_58" data-name="Path 58" d="M171.177,206.648c-.187.156-1.028-.6-2.3-1-1.258-.43-2.384-.319-2.442-.556-.025-.107.244-.289.743-.393a4.086,4.086,0,0,1,3.631,1.192C171.153,206.269,171.261,206.575,171.177,206.648Z" transform="translate(-166.437 -204.634)" fill="#1e2e4b"/>
      </g>
      <g id="Group_46" data-name="Group 46" transform="translate(95.201 84.642)">
        <path id="Path_59" data-name="Path 59" d="M174.019,216.284c.014.027-.086.125-.317.216a1.881,1.881,0,0,1-1.043.058,2.01,2.01,0,0,1-1.3-.909,1.16,1.16,0,0,1-.151-.5.771.771,0,0,1,.048-.312.612.612,0,0,1,.226-.285.664.664,0,0,1,.334-.113,1.182,1.182,0,0,1,.288.019,1.725,1.725,0,0,0,.4.051.708.708,0,0,0,.512-.4,1.965,1.965,0,0,0,.221-.724,4.538,4.538,0,0,0-.068-1.38,4.916,4.916,0,0,1-.221-1.324c.058-.019.317.428.57,1.241a4.148,4.148,0,0,1,.184,1.512,2.3,2.3,0,0,1-.252.918,1.518,1.518,0,0,1-.339.426,1.006,1.006,0,0,1-.565.24,1.951,1.951,0,0,1-.528-.06c-.14-.026-.221-.02-.258.009s-.067.07-.068.17a.72.72,0,0,0,.078.3,1.756,1.756,0,0,0,.983.784,2.16,2.16,0,0,0,.9.1C173.876,216.283,174,216.249,174.019,216.284Z" transform="translate(-171.208 -210.673)" fill="#876359"/>
      </g>
      <path id="Path_60" data-name="Path 60" d="M174.018,221.418a3.058,3.058,0,0,1,1.863-1.311,6.006,6.006,0,0,1,2.371,0A4.832,4.832,0,0,1,174.018,221.418Z" transform="translate(-76.631 -128.099)" fill="#ec8f77" opacity="0.501"/>
      <g id="Group_47" data-name="Group 47" transform="translate(96.284 90.66)">
        <path id="Path_61" data-name="Path 61" d="M179.087,218.412c.055.03-.088.444-.525.993a5.22,5.22,0,0,1-4.913,1.839c-.69-.126-1.069-.345-1.048-.4.023-.074.433.018,1.088.047a6.083,6.083,0,0,0,4.609-1.726C178.773,218.71,179.021,218.372,179.087,218.412Z" transform="translate(-172.6 -218.409)" fill="#876359"/>
      </g>
      <g id="Group_48" data-name="Group 48" transform="translate(101.898 90.382)">
        <path id="Path_62" data-name="Path 62" d="M181.322,219.125c-.133.053-.376-.24-.751-.455s-.739-.307-.756-.45c0-.067.1-.143.3-.164a1.264,1.264,0,0,1,1.217.731C181.4,218.967,181.384,219.1,181.322,219.125Z" transform="translate(-179.816 -218.051)" fill="#876359"/>
      </g>
      <g id="Group_49" data-name="Group 49" transform="translate(97.385 91.959)" opacity="0.36">
        <path id="Path_63" data-name="Path 63" d="M174.015,221.219a2.236,2.236,0,0,0,1.569,1.193,2.475,2.475,0,0,0,1.93-.458,1.869,1.869,0,0,0,.654-.838,1.2,1.2,0,0,0-.086-1.038" transform="translate(-174.015 -220.078)" fill="#cb2d0e"/>
      </g>
      <path id="Path_64" data-name="Path 64" d="M179.48,328.653s-47.59-26.59-62.463-20.144-40.9,64.447-40.9,64.447l8.744,5.247s17.75-21.368,38.1-49.549c0,0,37.181,23.093,52.8,12.877S179.48,328.653,179.48,328.653Z" transform="translate(-54.905 -147.52)" fill="#658fde"/>
      <path id="Path_65" data-name="Path 65" d="M193.283,326.378l14.056-4.894s4.85,12.007,2.221,15.591-.59,0-.59,0Z" transform="translate(-80.906 -150.623)" fill="#5a89e2"/>
      <path id="Path_66" data-name="Path 66" d="M75.136,392.138l-6.453,8.531,7.617,1.162,5.924-5.713S79.175,392.14,75.136,392.138Z" transform="translate(-53.255 -166.303)" fill="#f4bfad"/>
      <path id="Path_67" data-name="Path 67" d="M143.241,423.611" transform="translate(-69.801 -173.287)" fill="#ba8a7b"/>
      <path id="Path_68" data-name="Path 68" d="M144.89,425.908s-7.748,12.955-4.512,14.9,12.148-15.9,12.148-15.9v-.666Z" transform="translate(-68.99 -173.427)" fill="#0e357c"/>
      <path id="Path_69" data-name="Path 69" d="M64.867,402.013S47.054,408.785,49,411.635,71.8,406.3,71.8,406.3l1.157-2.519Z" transform="translate(-48.854 -168.494)" fill="#0e357c"/>
      <path id="Path_70" data-name="Path 70" d="M180.094,315.17l28.288-10.047L207.414,301l9.754-4.217s4.45,11.312.511,15.649c-2.66,2.929-28.875,6.547-28.875,6.547Z" transform="translate(-77.979 -145.141)" fill="#ffc7b4"/>
      <path id="Path_73" data-name="Path 73" d="M193.132,218.2a3.257,3.257,0,0,1-.748,1.7,7.99,7.99,0,0,1-3.58,2.689,14.02,14.02,0,0,1-4.379.868,5.828,5.828,0,0,1-1.842-.058,7.838,7.838,0,0,1,1.809-.3,17.906,17.906,0,0,0,4.225-.984,8.722,8.722,0,0,0,3.482-2.436C192.809,218.831,193.052,218.165,193.132,218.2Z" transform="translate(-78.532 -127.701)" fill="#64501a"/>
      <ellipse id="Ellipse_4" data-name="Ellipse 4" cx="3.747" cy="5.138" rx="3.747" ry="5.138" transform="translate(110.229 82.912)" fill="#c9a33b"/>
      <path id="Path_71" data-name="Path 71" d="M192.238,204.306s1.643-12.07-5.785-17.018a12.588,12.588,0,0,1,4.16,1.274s5.132,2.523,3.748,17.6Z" transform="translate(-79.39 -120.842)" fill="#c9a33b"/>
      <path id="Path_72" data-name="Path 72" d="M183.1,224.355c0,.5-.84.9-1.874.9s-1.874-.4-1.874-.9.839-.9,1.874-.9S183.1,223.858,183.1,224.355Z" transform="translate(-77.815 -128.868)" fill="#2c2207"/>
      <g id="Group_70" data-name="Group 70" transform="translate(26.956 165.755)">
        <g id="Group_51" data-name="Group 51" transform="translate(97.05 21.064)">
          <path id="Path_74" data-name="Path 74" d="M208.242,342.166c.086-.217.562-.231,1.061-.031s.835.537.748.754-.562.23-1.061.031S208.156,342.383,208.242,342.166Z" transform="translate(-208.229 -341.993)" fill="#4676d1"/>
        </g>
        <g id="Group_52" data-name="Group 52" transform="translate(89.958 18.299)">
          <path id="Path_75" data-name="Path 75" d="M199.121,338.542c.086-.217.952-.075,1.931.316s1.7.885,1.618,1.1-.952.075-1.932-.316S199.035,338.759,199.121,338.542Z" transform="translate(-199.114 -338.44)" fill="#4676d1"/>
        </g>
        <g id="Group_53" data-name="Group 53" transform="translate(82.86 15.464)">
          <path id="Path_76" data-name="Path 76" d="M190,334.9c.086-.216.952-.075,1.931.317s1.7.884,1.618,1.1-.951.075-1.931-.316S189.911,335.115,190,334.9Z" transform="translate(-189.991 -334.797)" fill="#4676d1"/>
        </g>
        <g id="Group_54" data-name="Group 54" transform="translate(75.761 12.629)">
          <path id="Path_77" data-name="Path 77" d="M180.875,331.254c.086-.216.951-.075,1.931.317s1.7.885,1.618,1.1-.951.075-1.931-.316S180.788,331.471,180.875,331.254Z" transform="translate(-180.868 -331.153)" fill="#4676d1"/>
        </g>
        <g id="Group_55" data-name="Group 55" transform="translate(68.662 9.794)">
          <path id="Path_78" data-name="Path 78" d="M171.751,327.611c.087-.217.952-.075,1.932.316s1.7.885,1.618,1.1-.952.075-1.931-.317S171.665,327.827,171.751,327.611Z" transform="translate(-171.744 -327.509)" fill="#4676d1"/>
        </g>
        <g id="Group_56" data-name="Group 56" transform="translate(61.564 6.959)">
          <path id="Path_79" data-name="Path 79" d="M162.628,323.967c.086-.217.952-.076,1.931.316s1.7.885,1.618,1.1-.952.075-1.932-.317S162.542,324.183,162.628,323.967Z" transform="translate(-162.621 -323.865)" fill="#4676d1"/>
        </g>
        <g id="Group_57" data-name="Group 57" transform="translate(54.465 4.123)">
          <path id="Path_80" data-name="Path 80" d="M153.505,320.323c.086-.217.952-.075,1.931.316s1.7.885,1.618,1.1-.952.075-1.932-.317S153.419,320.54,153.505,320.323Z" transform="translate(-153.498 -320.221)" fill="#4676d1"/>
        </g>
        <g id="Group_58" data-name="Group 58" transform="translate(47.34 1.354)">
          <path id="Path_81" data-name="Path 81" d="M144.346,316.774c.072-.223.94-.1,1.939.267a6.43,6.43,0,0,1,1.23.589c.293.2.452.377.409.486s-.281.128-.63.07a6.776,6.776,0,0,1-1.3-.352C145.011,317.471,144.274,317,144.346,316.774Z" transform="translate(-144.341 -316.662)" fill="#4676d1"/>
        </g>
        <g id="Group_59" data-name="Group 59" transform="translate(39.831)">
          <path id="Path_82" data-name="Path 82" d="M134.692,315.537c-.058-.223.788-.613,1.9-.615s1.946.333,1.908.558-.891.281-1.9.288S134.747,315.767,134.692,315.537Z" transform="translate(-134.689 -314.922)" fill="#4676d1"/>
        </g>
        <g id="Group_60" data-name="Group 60" transform="translate(33.796 2.167)">
          <path id="Path_83" data-name="Path 83" d="M126.987,320.581c-.19-.127.131-.966.854-1.789s1.562-1.228,1.7-1.04-.4.833-1.063,1.6S127.184,320.715,126.987,320.581Z" transform="translate(-126.933 -317.707)" fill="#4676d1"/>
        </g>
        <g id="Group_61" data-name="Group 61" transform="translate(29.861 8.284)">
          <path id="Path_84" data-name="Path 84" d="M121.944,328.887c-.2-.118.065-.952.6-1.864s1.124-1.557,1.326-1.439-.065.952-.6,1.864S122.146,329,121.944,328.887Z" transform="translate(-121.877 -325.569)" fill="#4676d1"/>
        </g>
        <g id="Group_62" data-name="Group 62" transform="translate(26.018 14.892)">
          <path id="Path_85" data-name="Path 85" d="M117,337.378c-.2-.117.065-.952.6-1.864s1.124-1.556,1.326-1.439-.065.952-.6,1.864S117.206,337.5,117,337.378Z" transform="translate(-116.937 -334.061)" fill="#4676d1"/>
        </g>
        <g id="Group_63" data-name="Group 63" transform="translate(22.175 21.499)">
          <path id="Path_86" data-name="Path 86" d="M112.066,345.869c-.2-.117.065-.952.594-1.864s1.124-1.556,1.327-1.439-.065.952-.6,1.864S112.267,345.986,112.066,345.869Z" transform="translate(-111.998 -342.552)" fill="#4676d1"/>
        </g>
        <g id="Group_64" data-name="Group 64" transform="translate(18.331 28.104)">
          <path id="Path_87" data-name="Path 87" d="M107.126,354.36c-.2-.117.065-.952.6-1.864s1.124-1.557,1.327-1.439-.065.952-.6,1.864S107.327,354.477,107.126,354.36Z" transform="translate(-107.058 -351.042)" fill="#4676d1"/>
        </g>
        <g id="Group_65" data-name="Group 65" transform="translate(14.488 34.712)">
          <path id="Path_88" data-name="Path 88" d="M102.186,362.852c-.2-.117.065-.952.6-1.865s1.124-1.556,1.327-1.439-.065.952-.6,1.864S102.387,362.969,102.186,362.852Z" transform="translate(-102.118 -359.534)" fill="#4676d1"/>
        </g>
        <g id="Group_66" data-name="Group 66" transform="translate(10.644 41.319)">
          <path id="Path_89" data-name="Path 89" d="M97.246,371.343c-.2-.117.065-.952.6-1.864s1.125-1.557,1.327-1.439-.065.952-.6,1.864S97.448,371.46,97.246,371.343Z" transform="translate(-97.179 -368.025)" fill="#4676d1"/>
        </g>
        <g id="Group_67" data-name="Group 67" transform="translate(6.801 47.926)">
          <path id="Path_90" data-name="Path 90" d="M92.307,379.835c-.2-.117.065-.952.6-1.864s1.124-1.557,1.326-1.439-.065.952-.6,1.864S92.508,379.952,92.307,379.835Z" transform="translate(-92.239 -376.517)" fill="#4676d1"/>
        </g>
        <g id="Group_68" data-name="Group 68" transform="translate(2.957 54.533)">
          <path id="Path_91" data-name="Path 91" d="M87.367,388.326c-.2-.117.065-.952.6-1.864s1.124-1.557,1.327-1.439-.065.952-.6,1.865S87.568,388.443,87.367,388.326Z" transform="translate(-87.299 -385.008)" fill="#4676d1"/>
        </g>
        <g id="Group_69" data-name="Group 69" transform="translate(0 61.13)">
          <path id="Path_92" data-name="Path 92" d="M83.619,395.2c-.2-.117-.146-.59.125-1.055s.654-.747.855-.629.146.59-.124,1.055S83.821,395.316,83.619,395.2Z" transform="translate(-83.498 -393.488)" fill="#4676d1"/>
        </g>
      </g>
      <path id="Path_93" data-name="Path 93" d="M76.119,390.2l9.016,5.562,3.153-3.784L77.8,385.2Z" transform="translate(-54.905 -164.762)" fill="#547fce"/>
      <path id="Path_94" data-name="Path 94" d="M122.848,347.846l14.381,50.891L149.5,396.86s1.912-34.564-9.242-48.37h24.093a152.356,152.356,0,0,1-31.1-13.806h0A10.411,10.411,0,0,0,122.848,347.846Z" transform="translate(-65.191 -153.551)" fill="#628de0"/>
      <g id="Group_81" data-name="Group 81" transform="translate(70.672 192.071)">
        <g id="Group_71" data-name="Group 71" transform="translate(21.419 1.563)">
          <path id="Path_95" data-name="Path 95" d="M167.212,351.06c.016-.233.9-.362,1.973-.288s1.93.324,1.914.557-.9.361-1.972.287S167.2,351.293,167.212,351.06Z" transform="translate(-167.212 -350.751)" fill="#4676d1"/>
        </g>
        <g id="Group_72" data-name="Group 72" transform="translate(13.645 1.024)">
          <path id="Path_96" data-name="Path 96" d="M157.22,350.367c.016-.233.9-.361,1.973-.287s1.93.324,1.914.556-.9.362-1.972.287S157.2,350.6,157.22,350.367Z" transform="translate(-157.22 -350.059)" fill="#4676d1"/>
        </g>
        <g id="Group_73" data-name="Group 73" transform="translate(5.87 0.486)">
          <path id="Path_97" data-name="Path 97" d="M147.228,349.675c.016-.233.9-.361,1.973-.287s1.93.324,1.914.556-.9.362-1.972.287S147.212,349.909,147.228,349.675Z" transform="translate(-147.228 -349.367)" fill="#4676d1"/>
        </g>
        <g id="Group_74" data-name="Group 74">
          <path id="Path_98" data-name="Path 98" d="M141.055,351.286c-.215.093-.743-.625-1.18-1.6-.053-.119-.1-.237-.148-.35l-.015-.038a.4.4,0,0,1,.226-.524.408.408,0,0,1,.194-.026c.889.1,1.549.317,1.534.522s-.7.329-1.592.306l.405-.587c.055.11.11.226.164.345C141.085,350.319,141.269,351.194,141.055,351.286Z" transform="translate(-139.683 -348.743)" fill="#4676d1"/>
        </g>
        <g id="Group_75" data-name="Group 75" transform="translate(2.759 6.136)">
          <path id="Path_99" data-name="Path 99" d="M144.7,360.284c-.221.078-.7-.672-1.081-1.675s-.506-1.886-.289-1.972.7.663,1.08,1.675S144.923,360.207,144.7,360.284Z" transform="translate(-143.229 -356.629)" fill="#4676d1"/>
        </g>
        <g id="Group_76" data-name="Group 76" transform="translate(5.347 13.479)">
          <path id="Path_100" data-name="Path 100" d="M147.8,369.8c-.225.063-.657-.719-.964-1.744s-.377-1.916-.155-1.988.654.71.965,1.745S148.03,369.741,147.8,369.8Z" transform="translate(-146.555 -366.066)" fill="#4676d1"/>
        </g>
        <g id="Group_77" data-name="Group 77" transform="translate(7.425 20.981)">
          <path id="Path_101" data-name="Path 101" d="M150.255,379.511c-.229.047-.607-.761-.845-1.806s-.247-1.937-.02-1.993.6.752.845,1.806S150.484,379.463,150.255,379.511Z" transform="translate(-149.226 -375.709)" fill="#4676d1"/>
        </g>
        <g id="Group_78" data-name="Group 78" transform="translate(8.979 28.609)">
          <path id="Path_102" data-name="Path 102" d="M152.043,389.362c-.232.032-.555-.8-.722-1.859s-.116-1.949.114-1.99.552.791.721,1.859S152.274,389.33,152.043,389.362Z" transform="translate(-151.223 -385.511)" fill="#4676d1"/>
        </g>
        <g id="Group_79" data-name="Group 79" transform="translate(9.994 36.326)">
          <path id="Path_103" data-name="Path 103" d="M153.155,399.312c-.233.016-.5-.836-.594-1.9s.016-1.953.248-1.979.5.827.594,1.9S153.388,399.3,153.155,399.312Z" transform="translate(-152.527 -395.429)" fill="#4676d1"/>
        </g>
        <g id="Group_80" data-name="Group 80" transform="translate(10.451 44.098)">
          <path id="Path_104" data-name="Path 104" d="M153.579,409.146c-.233,0-.44-.829-.462-1.854s.149-1.863.383-1.873.44.821.462,1.855S153.812,409.146,153.579,409.146Z" transform="translate(-153.115 -405.419)" fill="#4676d1"/>
        </g>
      </g>
      <path id="Path_105" data-name="Path 105" d="M140.062,415.138l14.92-1.443-.642-5.112-14.892,2.5Z" transform="translate(-68.959 -169.952)" fill="#547fce"/>
      <g id="Group_82" data-name="Group 82" transform="translate(71.079 180.142)" opacity="0.11">
        <path id="Path_106" data-name="Path 106" d="M189.086,345.811c.054.219-.6.615-1.866,1.059a25.294,25.294,0,0,1-5.561,1.142c-.6.077-1.226.1-1.883.144s-1.338.04-2.046.045a44.5,44.5,0,0,1-4.5-.269,53.421,53.421,0,0,1-10.068-2.165,73.656,73.656,0,0,1-9.489-3.792c-2.821-1.352-5.277-2.708-7.3-3.908-4.034-2.409-6.365-4.153-6.153-4.561s2.964.585,7.238,2.429c2.138.918,4.664,2.03,7.479,3.192s5.926,2.359,9.24,3.413a70.942,70.942,0,0,0,9.476,2.3c1.477.253,2.888.419,4.214.555.663.053,1.3.11,1.922.145s1.212.076,1.779.076C186.109,345.747,188.966,345.313,189.086,345.811Z" transform="translate(-140.206 -333.412)" fill="#00215f"/>
      </g>
      <path id="Path_107" data-name="Path 107" d="M407.3,302.272l-14.163-64.836,16.6,64.836-8.3-58.861,8.3,42.707-3.54-67.27s6.2,54.878,6.639,53.992,1.77-44.256,1.77-44.256-.664,65.057,0,64.394,3.983-35.627,3.983-35.627.443,31.422,0,30.758S426.334,235,426.334,235l-3.319,31.422s5.975-23.9,8.188-25.669c0,0-9.294,33.414-9.958,48.239,0,0,9.958-35.4,11.064-36.954l-10.843,50.231s11.064-38.724,13.5-41.712,0-1.217,0-1.217l-10.4,42.929-2.877,3.1-10.843,1.77Z" transform="translate(-125.259 -127.846)" fill="#c5daf7"/>
      <path id="Path_108" data-name="Path 108" d="M408.9,323.744l3.983,21.022,15.269.885,2.434-21.907Z" transform="translate(-128.757 -151.124)" fill="#dfebfd"/>
      <path id="Path_109" data-name="Path 109" d="M431.75,356.317l-5.247-.444.071-1.548c4.246.023,7.4.046,7.4.046v-3.2h-29.49s-.209,3.408,0,3.2c.07-.071,3.466-.094,7.929-.093v1.762h-4.868l-5.564,64.405h1.252l1.159-10.433,14.792.279v10.155h2.133V410.151l15.441-.417,1.39,10.711h2.087Zm-26.058,50.6,4.567-46.376,7.306.507,1.218,45.869Zm16.744,0c-.305-.2-1.328-45.97-1.328-45.97h8.33l6.089,45.97S422.74,407.124,422.436,406.921Z" transform="translate(-127.221 -157.211)" fill="#90abc4"/>
      <path id="Path_110" data-name="Path 110" d="M333.024,322.874l29.871,91.119,2.8-.845-24.985-90.285Z" transform="translate(-111.918 -150.929)" fill="#90abc4"/>
      <path id="Path_111" data-name="Path 111" d="M307.285,320.315l-25.913,90.023,2.789.874,30.1-88.712Z" transform="translate(-100.455 -150.363)" fill="#90abc4"/>
      <g id="Group_89" data-name="Group 89" transform="translate(160.861 113.523)">
        <path id="Path_112" data-name="Path 112" d="M260.106,247.793l-4.51,41.439h62.581l4.51-41.439Z" transform="translate(-255.596 -247.793)" fill="#dfebfd"/>
        <path id="Path_113" data-name="Path 113" d="M287.056,297.981s1.415,9.1-1.011,10.51h17.786a12.9,12.9,0,0,0,.5-10.51Z" transform="translate(-262.353 -258.93)" fill="#dfebfd"/>
        <path id="Path_114" data-name="Path 114" d="M257.572,280.688h61.012l3.8-31.8H261.113Z" transform="translate(-256.034 -248.037)" fill="#c5daf7"/>
        <path id="Path_115" data-name="Path 115" d="M298.185,294.334a2.323,2.323,0,1,1-2.323-2.323A2.322,2.322,0,0,1,298.185,294.334Z" transform="translate(-264.016 -257.606)" fill="#c5daf7"/>
        <path id="Path_116" data-name="Path 116" d="M260.813,256.32l61.319-.418-1.58,13.223-61.169.457Z" transform="translate(-256.436 -249.592)" fill="#a3bfe2"/>
        <g id="Group_88" data-name="Group 88" transform="translate(6.91 9.391)">
          <g id="Group_83" data-name="Group 83">
            <rect id="Rectangle_4" data-name="Rectangle 4" width="9.974" height="0.94" fill="#f8fbff"/>
          </g>
          <g id="Group_84" data-name="Group 84" transform="translate(0 2.083)">
            <rect id="Rectangle_5" data-name="Rectangle 5" width="18.557" height="0.325" fill="#f8fbff"/>
          </g>
          <g id="Group_85" data-name="Group 85" transform="translate(0 3.388)">
            <rect id="Rectangle_6" data-name="Rectangle 6" width="20.332" height="0.325" fill="#f8fbff"/>
          </g>
          <g id="Group_86" data-name="Group 86" transform="translate(0 4.642)">
            <rect id="Rectangle_7" data-name="Rectangle 7" width="10.444" height="0.325" fill="#f8fbff"/>
          </g>
          <g id="Group_87" data-name="Group 87" transform="translate(0 6.501)">
            <rect id="Rectangle_8" data-name="Rectangle 8" width="5.901" height="1.723" fill="#f8fbff"/>
          </g>
        </g>
        <rect id="Rectangle_9" data-name="Rectangle 9" width="5.014" height="1.407" transform="translate(7.504 3.628)" fill="#a3bfe2"/>
        <rect id="Rectangle_10" data-name="Rectangle 10" width="5.074" height="0.917" transform="translate(40.776 3.828)" fill="#a3bfe2"/>
        <rect id="Rectangle_11" data-name="Rectangle 11" width="5.074" height="0.917" transform="translate(47.824 3.828)" fill="#a3bfe2"/>
        <rect id="Rectangle_12" data-name="Rectangle 12" width="5.074" height="0.917" transform="translate(54.873 3.828)" fill="#a3bfe2"/>
        <path id="Path_117" data-name="Path 117" d="M273.133,286.882H261.51l1.1-10.078h11.906Z" transform="translate(-256.908 -254.231)" fill="#a3bfe2"/>
        <path id="Path_118" data-name="Path 118" d="M291.436,286.882H279.814l1.1-10.078h11.906Z" transform="translate(-260.97 -254.231)" fill="#a3bfe2"/>
        <path id="Path_119" data-name="Path 119" d="M309.74,286.882H298.117l1.1-10.078H311.12Z" transform="translate(-265.032 -254.231)" fill="#a3bfe2"/>
        <path id="Path_120" data-name="Path 120" d="M328.043,286.882H316.421l1.1-10.078h11.906Z" transform="translate(-269.094 -254.231)" fill="#a3bfe2"/>
        <path id="Path_121" data-name="Path 121" d="M313.7,256.062l-10.518,13.3,13.335-.1,10.784-13.2Z" transform="translate(-266.156 -249.628)" fill="#fcfdff" opacity="0.42"/>
      </g>
      <g id="Group_90" data-name="Group 90" transform="translate(72.399 256.775)">
        <path id="Path_122" data-name="Path 122" d="M147.57,432.932a27.468,27.468,0,0,0-2.815-.517,27.234,27.234,0,0,0-2.851.266c-.026-.058.247-.264.762-.458a5.584,5.584,0,0,1,4.187.185C147.347,432.647,147.6,432.875,147.57,432.932Z" transform="translate(-141.903 -431.902)" fill="#bad2f8"/>
      </g>
      <g id="Group_91" data-name="Group 91" transform="translate(72.959 252.847)">
        <path id="Path_123" data-name="Path 123" d="M145.612,430.148c-.026.019-.182-.119-.387-.435a3.829,3.829,0,0,1-.547-1.495,1.882,1.882,0,0,1,0-.568,1.049,1.049,0,0,1,.3-.607.765.765,0,0,1,.773-.142,1.034,1.034,0,0,1,.58.532,1.962,1.962,0,0,1,.176.728,3.327,3.327,0,0,1-.234,1.488,2.01,2.01,0,0,1-.446.71,1.03,1.03,0,0,1-.889.279,1.923,1.923,0,0,1-.752-.319,5.659,5.659,0,0,1-1.071-.918,2.35,2.35,0,0,1-.41-.564.892.892,0,0,1-.089-.388.6.6,0,0,1,.169-.409.624.624,0,0,1,.373-.177,1,1,0,0,1,.339.023,1.738,1.738,0,0,1,.521.233,3.027,3.027,0,0,1,1.1,1.166c.172.338.2.548.17.558s-.127-.168-.338-.454a3.317,3.317,0,0,0-1.108-.959,1.416,1.416,0,0,0-.422-.16.362.362,0,0,0-.329.061c-.054.063-.057.163.019.314a2,2,0,0,0,.349.438,5.553,5.553,0,0,0,1,.82,1.49,1.49,0,0,0,.557.237.517.517,0,0,0,.465-.149,2.6,2.6,0,0,0,.432-2.357.584.584,0,0,0-.311-.316.332.332,0,0,0-.344.042,1.038,1.038,0,0,0-.227.817,4.55,4.55,0,0,0,.365,1.442C145.542,429.949,145.643,430.126,145.612,430.148Z" transform="translate(-142.623 -426.853)" fill="#bad2f8"/>
      </g>
      <g id="Group_92" data-name="Group 92" transform="translate(71.196 251.088)">
        <path id="Path_124" data-name="Path 124" d="M151.4,424.594a12.89,12.89,0,0,1-1.036,2.646,53.957,53.957,0,0,1-3.278,6.02c-.713,1.134-1.433,2.19-2.116,3.128-.34.471-.675.909-.989,1.318a9.3,9.3,0,0,1-.962,1.1,3.3,3.3,0,0,1-1.891.961c-.513.049-.781-.076-.772-.1.005-.044.279.009.739-.095a3.366,3.366,0,0,0,1.671-1.021,23.967,23.967,0,0,0,1.823-2.429c.657-.947,1.36-2,2.067-3.127,1.418-2.249,2.573-4.364,3.386-5.908A20.065,20.065,0,0,1,151.4,424.594Z" transform="translate(-140.357 -424.593)" fill="#6a89ba"/>
      </g>
      <g id="Group_93" data-name="Group 93" transform="translate(0.154 235.488)">
        <path id="Path_125" data-name="Path 125" d="M72.881,404.55a3.665,3.665,0,0,1-.869.464c-.572.27-1.411.633-2.457,1.06-2.092.854-5.027,1.93-8.329,2.928s-6.345,1.722-8.56,2.168c-1.107.224-2.007.385-2.633.477a3.648,3.648,0,0,1-.98.094,32.145,32.145,0,0,1,3.535-.921c2.19-.534,5.2-1.312,8.492-2.3s6.229-2.012,8.348-2.778A32.067,32.067,0,0,1,72.881,404.55Z" transform="translate(-49.052 -404.544)" fill="#6a89ba"/>
      </g>
      <path id="Path_215" data-name="Path 215" d="M137.381,301.381l-26.1-20.227,3.012-4.713,23.913,9.608Z" transform="translate(-62.709 -140.627)" fill="#ffc7b4"/>
      <path id="Path_166" data-name="Path 166" d="M110.695,278.892l1.375-5.512-5.71-9.309a1.815,1.815,0,0,0-.619-.641l-5.99-3.715s-.775,1.6,2.126,3.6c4,2.768-.682,6.926-.682,6.926Z" transform="translate(-60.129 -136.915)" fill="#ffc7b4"/>
      <path id="Path_167" data-name="Path 167" d="M102.9,264.8s-1.6,1.179-2.779.926-8.289-8.68-9.131-8.146,1.16,3.444,1.987,4.271c1.1,1.1,3.6,3.632,3.379,3.911-.25.317-7.27-4.757-7.771-4.582-1.641.573,2.021,3.283,5.978,5.557s-.168.635-.168.635-6.312-2.859-6.736-1.814c-.349.86,7.241,4.378,7.241,4.378s.674.842-.674.589-5.557-2.021-5.978-1.768,14.937,10.26,17.79,8.2a4.786,4.786,0,0,0,2.249-4.714Z" transform="translate(-57.464 -136.437)" fill="#ffc7b4"/>
      <g id="Group_121" data-name="Group 121" transform="translate(43.086 127.765)">
        <path id="Path_168" data-name="Path 168" d="M107.155,273.47c-.028.054-.5-.066-1.218-.447a3.54,3.54,0,0,1-1.115-.934,2.56,2.56,0,0,1-.414-.792,2.216,2.216,0,0,1-.071-.97c.043-.321.121-.606.169-.871a4.344,4.344,0,0,0,.066-.765,7.427,7.427,0,0,0-.141-1.329c-.147-.761-.251-1.244-.179-1.265s.285.417.528,1.18a5.812,5.812,0,0,1,.26,1.4,4.243,4.243,0,0,1-.044.861c-.047.293-.119.577-.155.852a1.94,1.94,0,0,0,.36,1.423,3.738,3.738,0,0,0,.927.9C106.757,273.156,107.193,273.4,107.155,273.47Z" transform="translate(-104.229 -266.096)" fill="#ebb09d"/>
      </g>
    </g>
    <g id="Tit" transform="matrix(0.454, -0.891, 0.891, 0.454, 157.934, 171.734)">
      <g id="Group_117" data-name="Group 117">
        <g id="Group_116" data-name="Group 116" clip-path="url(#clip-path-2)">
          <circle id="Ellipse_5" data-name="Ellipse 5" cx="48.603" cy="48.603" r="48.603" transform="translate(-0.043 0.129)" fill="#4c75a3"/>
        </g>
      </g>
      <path id="Path_159" data-name="Path 159" d="M218.306,196.687l-4.547,14.933,14.54-3.163" transform="translate(-211.298 -122.928)" fill="#4c75a3"/>
      <g id="vk" transform="matrix(0.454, 0.891, -0.891, 0.454, 48.75, 20.586)">
        <path id="XMLID_807_" d="M39.592,82.611A62.613,62.613,0,0,1,44.1,87.143a13.167,13.167,0,0,1,1.615,2.327c.62,1.2.058,2.525-1.02,2.6l-6.7,0a5.174,5.174,0,0,1-4.267-1.734c-.928-.945-1.787-1.951-2.679-2.928a6.346,6.346,0,0,0-1.206-1.072,1.4,1.4,0,0,0-2.232.542A7.041,7.041,0,0,0,26.9,90c-.072,1.578-.549,1.993-2.134,2.065A17.139,17.139,0,0,1,15.177,90a21.188,21.188,0,0,1-6.453-6.042A81.336,81.336,0,0,1,.232,68.823C-.3,67.63.088,66.989,1.4,66.967c2.186-.042,4.372-.039,6.561,0a1.927,1.927,0,0,1,1.82,1.362,40.672,40.672,0,0,0,4.447,8.241,7.029,7.029,0,0,0,1.68,1.846,1.021,1.021,0,0,0,1.735-.51,5.718,5.718,0,0,0,.386-1.728,25.738,25.738,0,0,0-.108-6.058,2.525,2.525,0,0,0-2.15-2.31c-.641-.121-.545-.36-.235-.725A2.409,2.409,0,0,1,17.6,66.058h7.574c1.192.235,1.457.771,1.62,1.971l.007,8.413c-.013.464.232,1.843,1.069,2.15.67.219,1.111-.317,1.513-.741A26.089,26.089,0,0,0,33.642,71.3c.513-1.036.954-2.111,1.382-3.186a1.622,1.622,0,0,1,1.712-1.172l7.29.007a3.845,3.845,0,0,1,.644.039c1.228.209,1.565.738,1.186,1.937a18.2,18.2,0,0,1-2.9,5.026c-1.216,1.682-2.516,3.307-3.721,5-1.108,1.545-1.02,2.324.356,3.666Zm0,0" transform="translate(0 -66.058)" fill="#fff" fill-rule="evenodd"/>
      </g>
    </g>
  </g>
</svg>
