<svg xmlns="http://www.w3.org/2000/svg" width="17.625" height="17.615" viewBox="0 0 17.625 17.615">
  <g id="clock" transform="translate(0.25 0.25)">
    <g id="Group_127" data-name="Group 127" transform="translate(0 0)">
      <path id="Path_200" data-name="Path 200" d="M16.441,5.392A8.39,8.39,0,0,0,11.882.852,8.416,8.416,0,0,0,8.548.168,8.329,8.329,0,0,0,5.224.852,8.416,8.416,0,0,0,.674,5.392a8.554,8.554,0,0,0,0,6.657,8.434,8.434,0,0,0,4.55,4.55,8.33,8.33,0,0,0,3.324.683,8.419,8.419,0,0,0,3.333-.683,8.408,8.408,0,0,0,4.56-4.55,8.446,8.446,0,0,0,0-6.657ZM15.074,12.5a7.512,7.512,0,0,1-2.753,2.743,7.375,7.375,0,0,1-3.773,1.011,7.251,7.251,0,0,1-2.921-.6,7.656,7.656,0,0,1-2.4-1.6,7.61,7.61,0,0,1-1.6-2.406,7.372,7.372,0,0,1-.59-2.931,7.361,7.361,0,0,1,1-3.764A7.516,7.516,0,0,1,4.785,2.209,7.317,7.317,0,0,1,8.548,1.2a7.374,7.374,0,0,1,3.773,1.011,7.535,7.535,0,0,1,2.753,2.743,7.318,7.318,0,0,1,1.011,3.764A7.388,7.388,0,0,1,15.074,12.5Z" transform="translate(0 -0.168)" fill="#0e357c" stroke="#0e357c" stroke-width="0.5"/>
      <path id="Path_201" data-name="Path 201" d="M288.151,116.3v-4.85a.54.54,0,0,0-.543-.524.528.528,0,0,0-.515.524v4.925a.428.428,0,0,1,.019.075.49.49,0,0,0,.14.421l2.8,2.8a.533.533,0,0,0,.721,0,.5.5,0,0,0,0-.73Z" transform="translate(-279.06 -107.822)" fill="#0e357c" stroke="#0e357c" stroke-width="0.5"/>
    </g>
  </g>
</svg>
