<svg xmlns="http://www.w3.org/2000/svg" width="24.332" height="15.942" viewBox="0 0 24.332 15.942">
  <g id="moldova" transform="translate(0 0)">
    <path id="Path_169" data-name="Path 169" d="M347.621,88.273h-6.288v15.942h6.288a1.822,1.822,0,0,0,1.822-1.822V90.1A1.822,1.822,0,0,0,347.621,88.273Z" transform="translate(-325.112 -88.273)" fill="#ff4b55"/>
    <rect id="Rectangle_14" data-name="Rectangle 14" width="8.111" height="15.942" transform="translate(8.111 0)" fill="#ffe15a"/>
    <path id="Path_170" data-name="Path 170" d="M1.822,88.273A1.822,1.822,0,0,0,0,90.1v12.3a1.822,1.822,0,0,0,1.822,1.822H8.111V88.273Z" transform="translate(0 -88.273)" fill="#41479b"/>
    <rect id="Rectangle_15" data-name="Rectangle 15" width="0.269" height="1.505" transform="translate(13.861 10.676) rotate(140.808)" fill="#ffcd5a"/>
    <rect id="Rectangle_16" data-name="Rectangle 16" width="0.538" height="0.662" transform="translate(13.433 9.938) rotate(140.832)" fill="#ffbe5a"/>
    <rect id="Rectangle_17" data-name="Rectangle 17" width="0.269" height="1.505" transform="translate(11.539 9.51) rotate(39.192)" fill="#ffcd5a"/>
    <rect id="Rectangle_18" data-name="Rectangle 18" width="0.538" height="0.662" transform="translate(11.434 9.425) rotate(39.168)" fill="#ffbe5a"/>
    <path id="Path_171" data-name="Path 171" d="M236.65,297.584l-.673,1.346.942.673v-1.885Z" transform="translate(-224.762 -287.637)" fill="#ffe15a"/>
    <path id="Path_172" data-name="Path 172" d="M256.074,297.584l.673,1.346-.942.673v-1.885Z" transform="translate(-243.648 -287.637)" fill="#ffcd5a"/>
    <path id="Path_173" data-name="Path 173" d="M216.148,227.434v-3.5h.4v2.692A1.41,1.41,0,0,1,216.148,227.434Z" transform="translate(-205.876 -217.487)" fill="#ffbe5a"/>
    <path id="Path_174" data-name="Path 174" d="M210.482,228.106v-4.173h.4V227.3A1.41,1.41,0,0,1,210.482,228.106Z" transform="translate(-200.479 -217.486)" fill="#ffcd5a"/>
    <path id="Path_175" data-name="Path 175" d="M204.817,228.646v-4.712h.4v3.9A1.41,1.41,0,0,1,204.817,228.646Z" transform="translate(-195.083 -217.487)" fill="#ffe15a"/>
    <path id="Path_176" data-name="Path 176" d="M224.646,226.766v2.558c0,.673.976.583,1.481,1.077.5-.494,1.481-.4,1.481-1.077v-2.558Z" transform="translate(-213.97 -220.184)" fill="#ff4b55"/>
    <path id="Path_177" data-name="Path 177" d="M224.646,257.925V259c0,.673.976.583,1.481,1.077.5-.494,1.481-.4,1.481-1.077v-1.077Z" transform="translate(-213.97 -249.862)" fill="#41479b"/>
    <g id="Group_123" data-name="Group 123" transform="translate(10.811 4.562)">
      <path id="Path_178" data-name="Path 178" d="M242.315,251.581l-.4-.269v-.135l.135-.135v-.808l-.4-.269.4-.538h.135l.135.135.135-.135h.135l.4.538-.4.269v.808l.135.135v.135Z" transform="translate(-240.969 -246.331)" fill="#ffe15a"/>
      <path id="Path_179" data-name="Path 179" d="M233.682,229.6a.718.718,0,0,0-.538.673,1,1,0,0,0,.538.808l.269-.4C233.144,230.407,233.682,229.6,233.682,229.6Z" transform="translate(-232.875 -227.445)" fill="#ffe15a"/>
      <path id="Path_180" data-name="Path 180" d="M261.74,229.6a.718.718,0,0,1,.538.673,1,1,0,0,1-.538.808l-.269-.4C262.279,230.407,261.74,229.6,261.74,229.6Z" transform="translate(-259.855 -227.445)" fill="#ffe15a"/>
      <path id="Path_181" data-name="Path 181" d="M227.478,255.228l.269.135.269-.135-.269-.135Z" transform="translate(-227.478 -251.727)" fill="#ffe15a"/>
      <path id="Path_182" data-name="Path 182" d="M272.8,255.228l.269.135.269-.135-.269-.135Z" transform="translate(-270.647 -251.727)" fill="#ffe15a"/>
      <path id="Path_183" data-name="Path 183" d="M249.061,231.015l.1.1.14,0,0,.14.1.1-.1.1,0,.14-.14,0-.1.1-.1-.1-.14,0,0-.14-.1-.1.1-.1,0-.14.14,0Z" transform="translate(-247.714 -228.794)" fill="#ffe15a"/>
      <path id="Path_184" data-name="Path 184" d="M230.38,269.766l.1.108.135-.053a.079.079,0,0,1,.1.113l-.073.126.093.112a.079.079,0,0,1-.078.128l-.142-.03-.078.123a.079.079,0,0,1-.146-.034l-.015-.144-.141-.036a.079.079,0,0,1-.013-.149l.133-.059-.009-.145A.079.079,0,0,1,230.38,269.766Z" transform="translate(-229.948 -265.678)" fill="#ffe15a"/>
      <path id="Path_185" data-name="Path 185" d="M270.118,270.325a.347.347,0,0,1,.3-.278.344.344,0,0,0-.1-.037.348.348,0,0,0-.132.683.343.343,0,0,0,.1,0A.347.347,0,0,1,270.118,270.325Z" transform="translate(-267.893 -265.93)" fill="#ffe15a"/>
      <path id="Path_186" data-name="Path 186" d="M239.078,186.294l.269-1.346-.538-.4.135-.135h.269a.59.59,0,0,1,.4-.135.493.493,0,0,1,.538.538c0,.4.135,1.481.135,1.481h-1.212Z" transform="translate(-238.27 -184.275)" fill="#ffe15a"/>
    </g>
    <path id="Path_187" data-name="Path 187" d="M213.854,215.435a.538.538,0,0,0-.538.538h1.077A.539.539,0,0,0,213.854,215.435Z" transform="translate(-203.178 -209.392)" fill="#ffaa5a"/>
    <g id="Group_124" data-name="Group 124" transform="translate(9.734 5.37)">
      <path id="Path_188" data-name="Path 188" d="M205.625,202.484h-.808v-.9a.316.316,0,0,1,.316-.316h.177a.316.316,0,0,1,.316.316v.9Z" transform="translate(-204.817 -201.272)" fill="#ffbe5a"/>
      <path id="Path_189" data-name="Path 189" d="M287.369,227.434v-3.5h-.4v2.692A1.41,1.41,0,0,0,287.369,227.434Z" transform="translate(-283.061 -222.857)" fill="#ffbe5a"/>
    </g>
    <path id="Path_190" data-name="Path 190" d="M293.034,228.106v-4.173h-.4V227.3A1.41,1.41,0,0,0,293.034,228.106Z" transform="translate(-278.723 -217.486)" fill="#ffcd5a"/>
    <path id="Path_191" data-name="Path 191" d="M298.7,228.646v-4.712h-.4v3.9A1.41,1.41,0,0,0,298.7,228.646Z" transform="translate(-284.12 -217.487)" fill="#ffe15a"/>
    <path id="Path_192" data-name="Path 192" d="M276.172,215.435a.538.538,0,0,1,.538.538h-1.077A.539.539,0,0,1,276.172,215.435Z" transform="translate(-262.534 -209.392)" fill="#ffaa5a"/>
    <path id="Path_193" data-name="Path 193" d="M289.8,202.484h.808v-.9a.316.316,0,0,0-.316-.316h-.177a.316.316,0,0,0-.316.316v.9Z" transform="translate(-276.026 -195.902)" fill="#ffbe5a"/>
    <rect id="Rectangle_19" data-name="Rectangle 19" width="0.202" height="3.625" transform="translate(15.159 8.01) rotate(31.339)" fill="#ffaa5a"/>
    <rect id="Rectangle_20" data-name="Rectangle 20" width="0.538" height="0.421" transform="translate(14.023 10.612) rotate(128.638)" fill="#ffe15a"/>
    <rect id="Rectangle_21" data-name="Rectangle 21" width="0.337" height="0.777" transform="matrix(0.854, 0.52, -0.52, 0.854, 15.099, 7.975)" fill="#ffcd5a"/>
    <g id="Group_125" data-name="Group 125" transform="translate(9.119 8.164)">
      <rect id="Rectangle_22" data-name="Rectangle 22" width="3.5" height="0.135" transform="translate(0.113 0) rotate(57.119)" fill="#73af00"/>
      <path id="Path_194" data-name="Path 194" d="M208.823,289.383a.163.163,0,1,1-.3.112.163.163,0,1,1-.226.229.512.512,0,0,0,.578.345l.028-.018a.512.512,0,0,0-.077-.669Z" transform="translate(-207.515 -287.989)" fill="#73af00"/>
    </g>
    <circle id="Ellipse_8" data-name="Ellipse 8" cx="0.135" cy="0.135" r="0.135" transform="translate(10.356 10.101)" fill="#ff4b55"/>
    <path id="Path_195" data-name="Path 195" d="M198.058,272.731a.163.163,0,1,1-.3.112.163.163,0,1,1-.226.229.512.512,0,0,0,.578.345l.028-.018a.512.512,0,0,0-.077-.669Z" transform="translate(-188.143 -263.965)" fill="#73af00"/>
    <circle id="Ellipse_9" data-name="Ellipse 9" cx="0.135" cy="0.135" r="0.135" transform="translate(9.845 9.31)" fill="#ff4b55"/>
    <path id="Path_196" data-name="Path 196" d="M187.294,256.079a.163.163,0,1,1-.3.112.163.163,0,1,1-.226.229.512.512,0,0,0,.578.345l.028-.018a.512.512,0,0,0-.077-.669Z" transform="translate(-177.89 -248.104)" fill="#73af00"/>
    <circle id="Ellipse_10" data-name="Ellipse 10" cx="0.135" cy="0.135" r="0.135" transform="translate(9.333 8.518)" fill="#ff4b55"/>
    <g id="Group_126" data-name="Group 126" transform="translate(10.425 4.294)">
      <rect id="Rectangle_23" data-name="Rectangle 23" width="0.538" height="0.421" transform="translate(0.329 6.056) rotate(51.362)" fill="#ffe15a"/>
      <rect id="Rectangle_24" data-name="Rectangle 24" width="0.135" height="0.942" transform="translate(0.924)" fill="#ffe15a"/>
      <rect id="Rectangle_25" data-name="Rectangle 25" width="0.404" height="0.135" transform="translate(0.789 0.134)" fill="#ffe15a"/>
    </g>
    <path id="Path_197" data-name="Path 197" d="M238.809,187.244l.4.3v-.437h-.269Z" transform="translate(-227.46 -182.412)" fill="#ff875a"/>
    <path id="Path_198" data-name="Path 198" d="M187.348,176.587v.135h.135v.135h-.135v.135h.269a.59.59,0,0,1,.4-.135.493.493,0,0,1,.538.538c0,.4.135,1.481.135,1.481h.269a.538.538,0,0,1,.538-.538.531.531,0,0,1,.135.019v-.288a.4.4,0,1,1,.808,0v3.185l.174-.286-.057-.035.4-.664.057.035h0l.086.053.144.087-.4.664-.057-.035-.346.569v1.811a1.572,1.572,0,0,1-.39-.679,1.755,1.755,0,0,1-.156-.235l-.154.253.143.115-.336.421-.089-.071-.152.25-.172-.105.166-.272-.08-.064.114-.143-.353-.433-.1.085-.314-.385a2.56,2.56,0,0,0-.246.113l.644,1.288-.942.673-.942-.673.644-1.288c-.048-.025-.1-.049-.145-.071l-.28.344-.1-.085-.353.433.114.143-.114.091.156.242-.113.073-.149-.23-.109.087-.336-.421.151-.121-.08-.124h-.006a.129.129,0,0,1-.132-.113.45.45,0,0,1-.078-.012,1.755,1.755,0,0,1-.157.237,1.571,1.571,0,0,1-.39.679v-1.717a.564.564,0,0,1-.122-.053.458.458,0,0,1-.224-.281.317.317,0,0,1,.093-.013.089.089,0,1,0,.125-.105l-.132-.2h-.006a.129.129,0,0,1-.132-.113.522.522,0,0,1-.235-.074.458.458,0,0,1-.224-.281.317.317,0,0,1,.093-.013.473.473,0,0,1,.156.028.382.382,0,0,0,.279-.357.457.457,0,0,1,.164.32.52.52,0,0,1-.029.245.129.129,0,0,1,.047.172l.132.2.015.009v-3.152a.4.4,0,0,1,.808,0v.288a.532.532,0,0,1,.135-.019.538.538,0,0,1,.538.538h.4l.269-1.346-.135-.1-.269-.2v.3h-.135v-.673h-.135v-.135h.135v-.135h.135m2.161,6.118.05-.062.026.021.217-.356a.731.731,0,0,1-.031-.2v-.024a1.168,1.168,0,0,1-.269-.649.587.587,0,0,1-.412.545l.207.254-.1.085.316.388m-2.963,0,.072-.057.05.062.316-.388-.1-.085.171-.21c-.288-.12-.511-.267-.511-.589a1,1,0,0,1-.17.5.536.536,0,0,1,.056.478.129.129,0,0,1,.047.172l.073.113m.8-6.215h-.135a.1.1,0,0,0-.1.1v.034h-.034a.1.1,0,0,0-.1.1v.135a.1.1,0,0,0,.1.1h.034v.572a.1.1,0,0,0,.1.1h.135a.1.1,0,0,0,.1-.1v-.1l.108.081.084.063-.241,1.2h-.228a.64.64,0,0,0-.632-.538h-.034v-.169a.5.5,0,1,0-1.01,0v2.356a.5.5,0,0,0-.17-.238.1.1,0,0,0-.134.015.115.115,0,0,1-.21.079h-.016a.1.1,0,0,0-.1.075.426.426,0,0,0-.012.142h-.024a.418.418,0,0,0-.123.018.1.1,0,0,0-.069.116.557.557,0,0,0,.272.348.636.636,0,0,0,.212.08l.01.016a.231.231,0,0,0,.145.1l.074.114h-.007a.417.417,0,0,0-.123.018.1.1,0,0,0-.069.116.557.557,0,0,0,.272.348.6.6,0,0,0,.073.037v1.647a.1.1,0,0,0,.172.071,1.685,1.685,0,0,0,.413-.707q.051-.067.094-.135a.232.232,0,0,0,.126.074l0,.007-.08.064a.1.1,0,0,0-.016.142l.336.421a.1.1,0,0,0,.068.037h.011a.1.1,0,0,0,.063-.022l.021-.017.088.137a.1.1,0,0,0,.064.044l.021,0a.1.1,0,0,0,.055-.016l.065-.042-.015.03a.1.1,0,0,0,.032.127l.942.673a.1.1,0,0,0,.117,0l.942-.673a.1.1,0,0,0,.032-.127l-.6-1.2.08-.036.267.327a.1.1,0,0,0,.142.014l.026-.021.238.292-.064.08a.1.1,0,0,0,.016.142l.011.009-.119.2a.1.1,0,0,0,.034.139l.172.105a.1.1,0,0,0,.053.015l.024,0a.1.1,0,0,0,.062-.046l.093-.152a.1.1,0,0,0,.142-.016l.336-.421a.1.1,0,0,0,.021-.052,1.781,1.781,0,0,0,.385.607.1.1,0,0,0,.172-.071v-1.783l.282-.463.021,0a.1.1,0,0,0,.086-.049l.4-.664a.1.1,0,0,0-.034-.139l-.144-.087-.086-.053-.058-.035a.1.1,0,0,0-.139.034l-.333.547v-2.7a.5.5,0,1,0-1.01,0v.169H189.5a.64.64,0,0,0-.631.538h-.087c-.032-.265-.123-1.054-.123-1.38a.594.594,0,0,0-.639-.639.731.731,0,0,0-.44.135h0a.1.1,0,0,0,.006-.034v-.135a.1.1,0,0,0-.1-.1h-.034v-.034a.1.1,0,0,0-.1-.1Zm-.86,5.452a1.451,1.451,0,0,0,.068-.135.9.9,0,0,0,.334.257l-.088.108a.1.1,0,0,0,.014.142l.026.021-.18.221a.1.1,0,0,0-.033-.01h-.011a.1.1,0,0,0-.03,0,.229.229,0,0,0-.036-.146l-.011-.015a.645.645,0,0,0-.054-.448Zm2.758.072a.787.787,0,0,0,.241-.206,1.669,1.669,0,0,0,.183.312.793.793,0,0,0,.023.176l-.153.252a.1.1,0,0,0-.026.008l-.18-.221.026-.021a.1.1,0,0,0,.014-.142l-.129-.158Zm-1.949.663a.1.1,0,0,0,.078-.037l.17-.209-.461.922,0-.007-.107-.165.043-.034a.1.1,0,0,0,.016-.142l-.064-.08.238-.292.026.021a.1.1,0,0,0,.064.023Zm2.579.095.022-.036q.029.043.061.085l.006.025a.1.1,0,0,0-.015-.015l-.074-.059Z" transform="translate(-175.864 -172.294)" fill="#ffaa5a"/>
  </g>
</svg>
