<svg xmlns="http://www.w3.org/2000/svg" width="38.625" height="38.625" viewBox="0 0 38.625 38.625">
  <g id="user-male-black-shape" transform="translate(0 0)">
    <path id="Path_431" data-name="Path 431" d="M31.382,26.557H28.968a4.828,4.828,0,0,1-4.828-4.828V20.177a12.2,12.2,0,0,0,2.31-4.358c.049-.267.307-.4.479-.583a2.985,2.985,0,0,0,.413-3.594c-.094-.169-.264-.315-.255-.523,0-1.416.007-2.834,0-4.248a7.088,7.088,0,0,0-1.723-4.749A6.739,6.739,0,0,0,21.7.23a12.162,12.162,0,0,0-5.255.123A6.365,6.365,0,0,0,12.7,2.887a7.316,7.316,0,0,0-1.155,3.824c-.021,1.44,0,2.884-.009,4.328.033.289-.212.485-.323.724a2.992,2.992,0,0,0,.684,3.66,1.414,1.414,0,0,1,.412.807,11.681,11.681,0,0,0,2.176,3.895v1.6a4.828,4.828,0,0,1-4.828,4.828H7.242S2.867,27.763,0,33.8v2.414a2.413,2.413,0,0,0,2.414,2.414h33.8a2.412,2.412,0,0,0,2.414-2.414V33.8C35.758,27.764,31.382,26.557,31.382,26.557Z" transform="translate(0 -0.002)" fill="#dfe3eb"/>
  </g>
</svg>
